<svg width="60" height="60" viewBox="0 0 60 60" fill="none" xmlns="http://www.w3.org/2000/svg">
<path d="M30 60C46.5685 60 60 46.5685 60 30C60 13.4315 46.5685 0 30 0C13.4315 0 0 13.4315 0 30C0 46.5685 13.4315 60 30 60Z" fill="#FD8469"/>
<path d="M48.75 12.4167H11.25V47.5714H48.75V12.4167Z" fill="#324A5E"/>
<path d="M45.4762 20.3095H14.5357V44.2976H45.4762V20.3095Z" fill="white"/>
<path d="M18.4048 15.2262H14.5357V17.5119H18.4048V15.2262Z" fill="white"/>
<path d="M24.7857 15.2262H20.9167V17.5119H24.7857V15.2262Z" fill="#F9B54C"/>
<path d="M31.1786 15.2262H27.3095V17.5119H31.1786V15.2262Z" fill="#54C0EB"/>
<path d="M31.9762 36.2976V33.1429H30.4047C30.2619 32.6072 30.0476 32.0952 29.7738 31.6191L30.8809 30.5119L28.6428 28.2738L27.5357 29.381C27.0595 29.1072 26.5595 28.8929 26.0119 28.75V27.1786H22.8571V28.75C22.3214 28.8929 21.8095 29.1072 21.3333 29.381L20.2262 28.2738L17.9881 30.5119L19.0952 31.6191C18.8214 32.0952 18.6071 32.5952 18.4643 33.1429H16.8928V36.2976H18.4643C18.6071 36.8333 18.8214 37.3452 19.0952 37.8214L17.9881 38.9286L20.2262 41.1667L21.3333 40.0595C21.8095 40.3333 22.3095 40.5476 22.8571 40.6905V42.2619H26.0119V40.6905C26.5476 40.5476 27.0595 40.3333 27.5357 40.0595L28.6428 41.1667L30.8809 38.9286L29.7738 37.8214C30.0476 37.3452 30.2619 36.8452 30.4047 36.2976H31.9762ZM24.4404 38.8452C22.1666 38.8452 20.3214 37 20.3214 34.7262C20.3214 32.4524 22.1666 30.6072 24.4404 30.6072C26.7143 30.6072 28.5595 32.4524 28.5595 34.7262C28.5476 37 26.7143 38.8452 24.4404 38.8452Z" fill="#F1543F"/>
<path d="M42.4167 29.1547V27.0357H41.3572C41.2619 26.6785 41.1191 26.3333 40.9286 26.0119L41.6786 25.2619L40.1786 23.7619L39.4286 24.5119C39.1072 24.3333 38.7738 24.1904 38.4048 24.0833V23.0238H36.2857V24.0833C35.9286 24.1785 35.5834 24.3214 35.2619 24.5119L34.5119 23.7619L33.0119 25.2619L33.7619 26.0119C33.5834 26.3333 33.4405 26.6666 33.3334 27.0357H32.2738V29.1547H33.3334C33.4286 29.5119 33.5715 29.8571 33.7619 30.1785L33.0119 30.9285L34.5119 32.4285L35.2619 31.6785C35.5834 31.8571 35.9167 32 36.2857 32.1071V33.1666H38.4048V32.1071C38.7619 32.0119 39.1072 31.869 39.4286 31.6785L40.1786 32.4285L41.6786 30.9285L40.9286 30.1785C41.1072 29.8571 41.25 29.5238 41.3572 29.1547H42.4167ZM37.3453 30.869C35.8215 30.869 34.5715 29.6309 34.5715 28.0952C34.5715 26.5595 35.8095 25.3214 37.3453 25.3214C38.881 25.3214 40.1191 26.5714 40.1191 28.0952C40.1191 29.619 38.8691 30.869 37.3453 30.869Z" fill="#FFD05B"/>
</svg>
