<svg width="218" height="60" viewBox="0 0 218 60" fill="none" xmlns="http://www.w3.org/2000/svg">
<path d="M0 41.1796L3.7436 14.9744L18.718 0L37.436 18.718L26.2052 29.9488L41.1796 44.9232L18.718 59.8976L0 41.1796Z" fill="#00D1B2"/>
<path d="M51.3136 8.29358C48.8549 8.91744 49.0017 7.44955 49.0017 30.0184V50.5321L49.9925 51.156C50.8732 51.7431 51.9374 51.8165 59.2769 51.8165C68.8916 51.8165 70.5796 51.4862 73.2952 49.1009C75.754 46.9358 76.6347 44.6239 76.8182 39.9266C77.0384 34.4587 76.5246 32.5505 74.2861 30.2752C73.3319 29.3211 72.2677 28.5138 71.9374 28.5138C71.5338 28.5138 71.8641 27.9633 72.965 26.9358C75.2402 24.6973 75.9374 22.4954 75.7173 18.0917C75.5338 14.2385 74.7631 12.367 72.6714 10.6055C70.2861 8.66056 68.3411 8.29358 60.0108 8.1101C55.8641 8.0367 51.9374 8.1101 51.3136 8.29358ZM65.5154 15.8532C67.1301 16.6973 67.8274 18.3119 67.6439 20.7339C67.4971 22.4587 67.2769 22.9358 66.2861 23.8165C65.1485 24.8073 65.0384 24.844 60.9283 24.844H56.7081V20.0734V15.3028H60.5613C63.3136 15.3028 64.7815 15.4495 65.5154 15.8532ZM66.2494 32.1101C68.0475 32.9908 68.8182 34.7156 68.8182 37.8716C68.8182 41.1743 67.9374 43.1927 66.1393 44.0367C65.1852 44.5138 63.8274 44.6606 60.7815 44.6606H56.7081V38.055V31.4495H60.8549C64.0475 31.4495 65.2585 31.5963 66.2494 32.1101Z" fill="black"/>
<path d="M84.4512 8.40367C81.8457 8.95413 81.9925 7.77982 82.1026 26.2752L82.2127 43.0092L83.4237 45.5046C85.6255 49.945 89.6622 52 96.3044 52C103.827 52 108.378 49.211 110.066 43.5596C110.58 41.8716 110.653 39.1927 110.653 25.5413C110.653 12.9174 110.543 9.43119 110.176 9.13762C109.405 8.47707 106.91 8.0734 105.369 8.36697C102.506 8.84404 102.58 8.33028 102.58 25.3578C102.58 39.4862 102.506 40.5505 101.846 42.0183C100.011 46.0183 92.6714 46.0183 90.8365 42.0183C90.176 40.5505 90.1026 39.4862 90.1026 25.1743C90.1026 10.4587 90.0659 9.87156 89.3686 9.24771C88.4512 8.40367 86.2493 8.0367 84.4512 8.40367Z" fill="black"/>
<path d="M120.121 8.33029C119.35 8.47707 118.396 8.88074 117.992 9.24772C117.259 9.90827 117.259 10.2752 117.332 30.0917L117.442 50.2752L118.47 51.0459C119.46 51.7798 119.901 51.8165 130.176 51.8165C140.231 51.8165 140.818 51.7798 141.332 51.1193C142.506 49.4679 142.433 46.7156 141.112 45.3945C140.414 44.6972 139.864 44.6606 132.855 44.6606H125.332V27.0826C125.332 13.211 125.222 9.4312 124.855 9.13762C124.121 8.51377 121.589 8.0734 120.121 8.33029Z" fill="black"/>
<path d="M148.928 8.36699C147.313 8.69726 146.69 9.24772 146.249 10.8624C146.029 11.6697 145.882 19.4496 145.882 31.0092V49.8349L146.8 50.7156C147.974 51.9266 150.947 52.0734 152.928 51.0459L153.956 50.5321L154.029 37.3578L154.139 24.1835L157.258 30.0918C158.983 33.3578 160.745 36.4037 161.185 36.844C162.066 37.7248 163.754 37.945 164.965 37.3211C165.332 37.1376 167.167 34.2385 169.038 30.8624L172.488 24.7707L172.671 37.7248C172.781 44.8807 172.928 50.7523 172.965 50.7523C174.873 51.8899 178.249 52 179.644 50.9725L180.561 50.2752V30.2385C180.561 10.2752 180.561 10.1652 179.791 9.39451C177.992 7.63304 173.919 7.88992 172.121 9.94497C171.534 10.6055 169.295 14.3119 167.203 18.1652C165.075 22.0551 163.313 25.1376 163.277 25.1009C163.24 25.0642 161.442 21.7982 159.313 17.8716C157.148 13.945 154.91 10.2385 154.323 9.65139C153.185 8.47708 150.91 7.92662 148.928 8.36699Z" fill="black"/>
<path d="M197.772 8.55046C197.148 8.84404 196.451 9.46789 196.268 9.90826C196.048 10.3486 193.295 19.1927 190.103 29.578C185.552 44.4404 184.378 48.6605 184.635 49.3578C185.369 51.3761 190.47 52.5505 191.754 51.0092C192.048 50.6055 192.782 48.5505 193.369 46.3853L194.433 42.4587H201.112H207.791L208.855 46.3853C209.442 48.5505 210.176 50.6055 210.47 51.0092C211.937 52.8073 217.736 51.0092 217.809 48.6972C217.809 48.1101 207.24 13.3578 206.249 10.6422C205.809 9.57798 205.295 8.95413 204.451 8.55046C202.873 7.81652 199.277 7.81652 197.772 8.55046ZM203.534 27.3027C204.782 31.8165 205.736 35.5596 205.626 35.6697C205.515 35.7798 203.387 35.8165 200.855 35.7798L196.268 35.6697L198.653 27.3027C199.974 22.7156 201.075 19.0092 201.112 19.0459C201.185 19.1193 202.249 22.8257 203.534 27.3027Z" fill="black"/>
</svg>
