<svg width="207" height="60" viewBox="0 0 207 60" fill="none" xmlns="http://www.w3.org/2000/svg">
<path d="M1.3409 46.5515V23.6207H29.9713V22.2794H1.3409V1.35989H31.7815V0.0189934H0V47.8924H32.0495V46.5515H1.3413H1.3409ZM57.8641 13.4288L45.9965 29.0515L34.3965 13.4292H32.6531L45.1916 30.0575L31.4458 47.892H33.0552L45.9957 31.0624L59.0034 47.892H60.6795L46.8674 30.0567L59.4727 13.4284H57.8637L57.8641 13.4288ZM64.703 59.6933V38.2377H64.837C65.6419 41.3666 67.2287 43.881 69.5978 45.7809C71.9669 47.6803 74.9839 48.6305 78.6492 48.6305C81.0183 48.6305 83.1194 48.15 84.9521 47.189C86.7848 46.228 88.3156 44.9205 89.545 43.2665C90.774 41.6125 91.7129 39.6905 92.3612 37.5001C93.0091 35.3101 93.3335 33.0078 93.3335 30.5944C93.3335 28.0015 92.9979 25.6099 92.3274 23.4199C91.657 21.2294 90.6847 19.3296 89.411 17.7207C88.1369 16.1113 86.5948 14.8594 84.7843 13.966C82.9741 13.0718 80.929 12.6247 78.6492 12.6247C76.9059 12.6247 75.2857 12.8819 73.7883 13.3958C72.2908 13.9101 70.9612 14.636 69.799 15.5749C68.63 16.521 67.6124 17.6402 66.7816 18.8937C65.9325 20.1678 65.2841 21.5647 64.837 23.0846H64.703V13.4288H63.3621V59.6933H64.703V59.6933ZM78.6492 47.356C74.4479 47.356 71.0727 45.9145 68.5249 43.0315C65.9771 40.1485 64.703 36.0022 64.703 30.5936C64.703 28.3585 65.0161 26.2353 65.6419 24.2239C66.2677 22.2126 67.1727 20.4467 68.3571 18.9271C69.5418 17.4072 71.0059 16.2003 72.7488 15.3065C74.4921 14.4123 76.4592 13.9652 78.6492 13.9652C80.8843 13.9652 82.8401 14.4123 84.5163 15.3065C86.1924 16.2003 87.5783 17.4184 88.6734 18.9606C89.7684 20.5027 90.5954 22.2685 91.1543 24.2573C91.7129 26.2465 91.9922 28.3585 91.9922 30.5936C91.9922 32.6053 91.7354 34.6058 91.2211 36.5946C90.7072 38.5838 89.9136 40.3718 88.8408 41.959C87.7683 43.5454 86.394 44.8416 84.7175 45.8477C83.0409 46.8533 81.0183 47.356 78.6492 47.356V47.356ZM100.709 47.8924V28.381C100.709 26.5037 100.977 24.6706 101.514 22.883C102.05 21.095 102.877 19.5191 103.994 18.1561C105.112 16.7927 106.531 15.7198 108.252 14.9375C109.973 14.1551 112.018 13.8312 114.387 13.9652V12.6243C112.331 12.58 110.532 12.803 108.99 13.2947C107.447 13.7865 106.117 14.457 105 15.3065C103.882 16.1556 102.989 17.15 102.318 18.2901C101.648 19.4284 101.151 20.6598 100.843 21.9442H100.709V13.4288H99.3679V47.8928H100.709V47.8924ZM116.063 30.9288H144.894C144.984 28.5597 144.749 26.2803 144.191 24.0899C143.632 21.8995 142.738 19.955 141.509 18.2567C140.279 16.558 138.693 15.1946 136.748 14.1664C134.803 13.1382 132.49 12.6243 129.809 12.6243C127.886 12.6243 126.009 13.0267 124.176 13.8316C122.343 14.636 120.734 15.8091 119.349 17.3512C117.963 18.8933 116.845 20.7819 115.996 23.0174C115.147 25.2521 114.722 27.7999 114.722 30.6608C114.722 33.2086 115.013 35.5889 115.594 37.8015C116.175 40.0141 117.069 41.9365 118.276 43.5679C119.483 45.1994 121.036 46.4622 122.936 47.356C124.835 48.2502 127.126 48.6747 129.809 48.6301C133.742 48.6301 137.05 47.5234 139.732 45.3112C142.414 43.0983 144.001 39.9807 144.492 35.9576H143.151C142.57 39.7573 141.084 42.6069 138.693 44.5064C136.301 46.4062 133.295 47.356 129.674 47.356C127.216 47.356 125.137 46.9314 123.438 46.0823C121.74 45.2332 120.354 44.0705 119.281 42.5956C118.209 41.1203 117.415 39.3883 116.901 37.3991C116.387 35.4103 116.108 33.2532 116.063 30.9288ZM143.553 29.5879H116.064C116.197 27.1741 116.644 25.0062 117.404 23.0842C118.164 21.1618 119.159 19.5191 120.388 18.1561C121.617 16.7927 123.048 15.7536 124.679 15.0381C126.311 14.323 128.065 13.9652 129.943 13.9652C132.178 13.9652 134.144 14.3789 135.843 15.2059C137.541 16.0329 138.961 17.1617 140.101 18.5919C141.24 20.0222 142.101 21.6874 142.682 23.5869C143.263 25.4868 143.553 27.4872 143.553 29.5879ZM172.72 23.6207H174.061C174.061 19.7763 172.944 16.9826 170.709 15.2393C168.474 13.496 165.434 12.6243 161.59 12.6243C159.444 12.6243 157.634 12.8927 156.159 13.4292C154.684 13.9652 153.477 14.6582 152.538 15.5073C151.6 16.3564 150.929 17.2953 150.527 18.3235C150.124 19.3517 149.923 20.3353 149.923 21.2737C149.923 23.1511 150.258 24.6485 150.929 25.766C151.6 26.8836 152.65 27.7552 154.08 28.381C155.064 28.8277 156.181 29.2302 157.433 29.5883C158.684 29.9457 160.137 30.3256 161.791 30.7276C163.266 31.0858 164.719 31.4431 166.15 31.8005C167.58 32.1582 168.843 32.6387 169.938 33.242C171.033 33.8456 171.927 34.6167 172.62 35.5555C173.312 36.494 173.659 37.7234 173.659 39.243C173.659 40.7183 173.313 41.9699 172.62 42.9977C171.933 44.0205 171.028 44.8792 169.971 45.5125C168.899 46.1604 167.702 46.6296 166.384 46.9202C165.065 47.2107 163.78 47.356 162.529 47.356C158.461 47.356 155.343 46.4509 153.175 44.6408C151.007 42.8303 149.924 39.9807 149.924 36.0916H148.582C148.582 40.4278 149.756 43.6013 152.102 45.6131C154.449 47.6244 157.925 48.6301 162.529 48.6301C164.004 48.6301 165.49 48.4623 166.988 48.127C168.485 47.7918 169.826 47.2445 171.01 46.4843C172.185 45.7349 173.171 44.7257 173.893 43.5345C174.631 42.3272 175 40.8523 175 39.109C175 37.455 174.676 36.1141 174.028 35.0859C173.38 34.0581 172.53 33.2086 171.48 32.5381C170.429 31.8677 169.245 31.3425 167.926 30.9626C166.6 30.5805 165.27 30.2116 163.937 29.8559C162.295 29.4254 160.653 29.0008 159.008 28.5822C157.601 28.2245 156.293 27.7999 155.086 27.3081C153.924 26.8164 152.996 26.1125 152.304 25.1962C151.611 24.2799 151.264 22.9724 151.264 21.2737C151.264 20.961 151.354 20.4021 151.532 19.5976C151.711 18.7927 152.136 17.977 152.807 17.15C153.477 16.3234 154.505 15.5858 155.891 14.9375C157.276 14.2895 159.176 13.9652 161.59 13.9652C163.244 13.9652 164.752 14.1443 166.116 14.5016C167.479 14.8594 168.653 15.4292 169.636 16.2116C170.619 16.9939 171.379 17.9883 171.916 19.1952C172.452 20.4025 172.72 21.8774 172.72 23.6207V23.6207ZM203.764 23.6207H205.105C205.105 19.7763 203.988 16.9826 201.753 15.2393C199.518 13.496 196.478 12.6243 192.634 12.6243C190.488 12.6243 188.678 12.8927 187.203 13.4292C185.728 13.9652 184.521 14.6582 183.582 15.5073C182.643 16.3564 181.973 17.2953 181.571 18.3235C181.168 19.3517 180.967 20.3353 180.967 21.2737C180.967 23.1511 181.303 24.6485 181.973 25.766C182.643 26.8836 183.694 27.7552 185.124 28.381C186.108 28.8277 187.225 29.2302 188.477 29.5883C189.728 29.9457 191.181 30.3256 192.835 30.7276C194.31 31.0858 195.763 31.4431 197.193 31.8005C198.624 32.1582 199.886 32.6387 200.982 33.242C202.077 33.8456 202.971 34.6167 203.664 35.5555C204.357 36.494 204.703 37.7234 204.703 39.243C204.703 40.7183 204.357 41.9699 203.664 42.9977C202.977 44.0205 202.072 44.8791 201.016 45.5125C199.942 46.1604 198.747 46.6296 197.428 46.9202C196.11 47.2107 194.824 47.356 193.573 47.356C189.505 47.356 186.387 46.4509 184.219 44.6408C182.051 42.8303 180.967 39.9807 180.967 36.0916H179.626C179.626 40.4278 180.8 43.6013 183.147 45.6131C185.493 47.6244 188.968 48.6301 193.573 48.6301C195.048 48.6301 196.534 48.4623 198.032 48.127C199.529 47.7918 200.87 47.2445 202.055 46.4843C203.229 45.7349 204.215 44.7257 204.938 43.5345C205.675 42.3272 206.044 40.8523 206.044 39.109C206.044 37.455 205.72 36.1141 205.072 35.0859C204.424 34.0581 203.575 33.2086 202.524 32.5381C201.474 31.8677 200.289 31.3425 198.97 30.9626C197.644 30.5805 196.314 30.2116 194.981 29.8559C193.34 29.4254 191.697 29.0008 190.053 28.5822C188.645 28.2245 187.337 27.7999 186.13 27.3081C184.968 26.8164 184.04 26.1125 183.348 25.1962C182.655 24.2799 182.308 22.9724 182.308 21.2737C182.308 20.961 182.398 20.4021 182.577 19.5976C182.755 18.7927 183.18 17.977 183.85 17.15C184.521 16.3234 185.549 15.5858 186.935 14.9375C188.321 14.2895 190.22 13.9652 192.634 13.9652C194.288 13.9652 195.796 14.1443 197.16 14.5016C198.523 14.8594 199.696 15.4292 200.68 16.2116C201.664 16.9939 202.423 17.9883 202.96 19.1952C203.496 20.4025 203.765 21.8774 203.765 23.6207H203.764Z" fill="#222222"/>
</svg>
