<svg width="60" height="60" viewBox="0 0 60 60" fill="none" xmlns="http://www.w3.org/2000/svg">
<path d="M30 60C46.5685 60 60 46.5685 60 30C60 13.4315 46.5685 0 30 0C13.4315 0 0 13.4315 0 30C0 46.5685 13.4315 60 30 60Z" fill="#FFD05B"/>
<path d="M48.75 11.25H11.25V48.75H48.75V11.25Z" fill="#54C0EB"/>
<path d="M45.4762 19.131H14.5357V45.4643H45.4762V19.131Z" fill="white"/>
<path d="M18.4048 14.0476H14.5357V16.3333H18.4048V14.0476Z" fill="#F1543F"/>
<path d="M24.7857 14.0476H20.9167V16.3333H24.7857V14.0476Z" fill="white"/>
<path d="M31.1786 14.0476H27.3095V16.3333H31.1786V14.0476Z" fill="#2B3B4E"/>
<path d="M30 41.9285C35.3191 41.9285 39.631 37.6166 39.631 32.2976C39.631 26.9785 35.3191 22.6666 30 22.6666C24.681 22.6666 20.3691 26.9785 20.3691 32.2976C20.3691 37.6166 24.681 41.9285 30 41.9285Z" fill="#324A5E"/>
<path d="M25.619 36.2857L21.4524 32.2976L25.619 28.3214L26.8571 29.6191L24.0476 32.2976L26.8571 34.9881L25.619 36.2857Z" fill="white"/>
<path d="M34.3809 36.2857L33.1428 34.9881L35.9523 32.2976L33.1428 29.6191L34.3809 28.3214L38.5476 32.2976L34.3809 36.2857Z" fill="white"/>
<path d="M26.6389 38.3687L28.2994 39.0255L33.361 26.2284L31.7005 25.5716L26.6389 38.3687Z" fill="white"/>
</svg>
