<svg width="60" height="60" viewBox="0 0 60 60" fill="none" xmlns="http://www.w3.org/2000/svg">
<path d="M30 0C13.4247 0 0 13.4247 0 30C0 44.0987 9.67404 55.8 22.726 59.0987C22.5753 58.7234 22.5013 58.1974 22.5013 57.674V52.5728H18.7506C16.726 52.5728 14.8494 51.674 14.0247 50.0221C13.0494 48.2221 12.8987 45.4468 10.4247 43.7209C9.67404 43.1209 10.274 42.5209 11.0987 42.5949C12.674 43.0443 13.9481 44.0962 15.1481 45.6689C16.3481 47.2443 16.874 47.6196 19.1234 47.6196C20.1728 47.6196 21.8221 47.5455 23.3234 47.3183C24.1481 45.217 25.5728 43.343 27.2987 42.4443C17.2494 41.2443 12.4494 36.2936 12.4494 29.543C12.4494 26.617 13.7234 23.8417 15.8247 21.4417C15.1506 19.1157 14.2494 14.3157 16.126 12.4417C20.6272 12.4417 23.326 15.3677 24 16.1157C26.2494 15.3651 28.726 14.9157 31.274 14.9157C33.8987 14.9157 36.2987 15.3651 38.5481 16.1157C39.2221 15.3651 41.9234 12.4417 46.4221 12.4417C48.2221 14.2417 47.3974 19.1157 46.6468 21.4417C48.7481 23.7677 49.9481 26.617 49.9481 29.543C49.9481 36.2936 45.2221 41.2443 35.2494 42.2936C38.0247 43.7183 39.9753 47.7677 39.9753 50.7677V57.6C39.9753 57.8247 39.9013 58.0494 39.9013 58.274C51.6 54.2247 60 43.126 60 30C60 13.4247 46.5753 0 30 0Z" fill="black"/>
</svg>
