<svg width="60" height="60" viewBox="0 0 60 60" fill="none" xmlns="http://www.w3.org/2000/svg">
<path fill-rule="evenodd" clip-rule="evenodd" d="M35.7559 6.8778L49.6058 14.0002C50.0056 13.6234 50.4645 13.3 50.9681 13.04C53.8404 11.5692 57.5041 12.4425 59.1725 15.0009C60.8238 17.5593 59.8434 20.8223 56.9709 22.3083C56.471 22.5647 55.9323 22.7558 55.3713 22.8756V37.1257C55.9262 37.2457 56.459 37.4354 56.9538 37.6892C59.8434 39.1752 60.8238 42.4384 59.1554 44.9968C57.5041 47.555 53.8233 48.4283 50.9508 46.9577C50.3943 46.6734 49.893 46.3109 49.4662 45.8843L35.7006 52.9629C35.9022 53.5065 36.0046 54.0755 36.0039 54.6481C36.0039 57.5894 33.3208 59.9948 30.0011 59.9948C26.6813 59.9948 23.9983 57.6046 23.9983 54.6481C23.9983 54.1225 24.083 53.6148 24.2411 53.1354L10.395 46.015C9.99952 46.3844 9.54712 46.7018 9.05135 46.9577C6.16177 48.4283 2.49804 47.555 0.846713 44.9968C-0.804377 42.4384 0.176067 39.1752 3.04832 37.6892C3.54313 37.4354 4.07596 37.2456 4.6308 37.1254V22.8756C4.06984 22.7558 3.53113 22.5647 3.03123 22.3083C0.158739 20.8377 -0.821706 17.5593 0.829619 15.0009C2.48094 12.4425 6.16153 11.5692 9.03402 13.04C9.53492 13.2986 9.99152 13.6199 10.3898 13.9942L24.2437 6.86987C24.0804 6.37618 23.9977 5.86412 23.9983 5.34945C23.9983 2.39307 26.6813 0.00294495 30.0011 0.00294495C33.3208 0.00294495 36.0039 2.39287 36.0039 5.34945C36.0039 5.88087 35.9172 6.39373 35.7559 6.8778ZM34.313 9.0723L48.1959 16.2114C47.9748 16.8997 47.9114 17.6205 48.0094 18.331C48.1075 19.0416 48.3649 19.7273 48.7665 20.3474C49.6116 21.6568 50.9883 22.5248 52.5162 22.8631V37.1309C52.4382 37.1478 52.3607 37.1663 52.2837 37.1859L34.1516 9.21516C34.2064 9.16844 34.2603 9.12089 34.313 9.07251V9.0723ZM25.8543 9.21829L7.72247 37.1886C7.64407 37.1685 7.56522 37.1497 7.48597 37.1323V22.8631C9.01389 22.5248 10.3905 21.6568 11.2356 20.3474C11.638 19.7261 11.8957 19.0389 11.9934 18.327C12.091 17.615 12.0266 16.8928 11.804 16.2035L25.6829 9.06646C25.7388 9.11797 25.796 9.16865 25.8543 9.21808V9.21829ZM31.6784 10.4853L49.806 38.4494C49.3907 38.8023 49.0348 39.2067 48.7492 39.6501C48.4643 40.0908 48.2512 40.5654 48.1165 41.0596H11.8861C11.7512 40.5654 11.538 40.0908 11.253 39.6501C10.9663 39.2098 10.6111 38.8078 10.1978 38.4563L28.3289 10.4866C28.8725 10.626 29.4354 10.6965 30.0011 10.696C30.5834 10.696 31.1461 10.6225 31.6784 10.4853ZM34.4404 51.0462L48.2331 43.9534C48.1917 43.8376 48.1548 43.7206 48.1223 43.6026H11.8784C11.8592 43.672 11.8384 43.7408 11.8161 43.8095L25.6763 50.9371C26.236 50.4187 26.9077 50.0066 27.6509 49.7255C28.3942 49.4444 29.1936 49.3002 30.0011 49.3016C30.8368 49.3003 31.6635 49.4548 32.4281 49.7553C33.1926 50.0558 33.8781 50.4955 34.4404 51.0462V51.0462Z" fill="#E535AB"/>
</svg>
