<svg width="60" height="60" viewBox="0 0 60 60" fill="none" xmlns="http://www.w3.org/2000/svg">
<path d="M0 4.34601C0 2.01256 1.95353 0.1185 4.36168 0.1185H54.6547C57.0638 0.1185 59.0164 2.01256 59.0164 4.34601V54.9081C59.0164 57.2422 57.0638 59.1349 54.6547 59.1349H4.36168C1.95377 59.1349 0 57.2425 0 54.9088V4.34532V4.34601Z" fill="#006699"/>
<path d="M17.9343 49.5074V22.938H9.10306V49.5074H17.9352H17.9343ZM13.5205 19.3111C16.5995 19.3111 18.5164 17.2708 18.5164 14.7212C18.4588 12.1134 16.5995 10.1301 13.5791 10.1301C10.5566 10.1301 8.58252 12.1134 8.58252 14.7209C8.58252 17.2706 10.4987 19.3108 13.4627 19.3108H13.5198L13.5205 19.3111ZM22.8225 49.5074H31.6531V34.6715C31.6531 33.8784 31.7107 33.0833 31.944 32.5169C32.5821 30.9297 34.0352 29.2867 36.4754 29.2867C39.6701 29.2867 40.9489 31.7229 40.9489 35.2951V49.5074H49.7792V34.2733C49.7792 26.1127 45.423 22.3151 39.6129 22.3151C34.8494 22.3151 32.7573 24.9776 31.595 26.7909H31.6538V22.939H22.823C22.9383 25.4315 22.8223 49.5083 22.8223 49.5083L22.8225 49.5074Z" fill="white"/>
</svg>
