<svg width="51" height="60" viewBox="0 0 51 60" fill="none" xmlns="http://www.w3.org/2000/svg">
<path d="M18.4239 17.2826L18.5869 21.0326L15.9782 25.9239L11.9022 33.9131L11.0869 40.5978L14.0217 50.0544L20.7065 53.8044H30.8152L40.2717 46.6304L44.5109 35.3804L34.7283 23.4783L31.9565 16.7935L18.4239 17.2826Z" fill="#ECEFF1"/>
<path d="M41.5761 26.5761C38.9674 22.8261 36.8478 20.5435 35.7065 15.8152C34.5652 11.087 36.0326 12.3913 35.0544 8.31523C34.5652 6.19567 33.75 4.72827 32.9348 3.58697C31.9565 2.44567 30.8152 1.79349 30.1631 1.63045C28.6957 0.815231 25.2718 -0.489118 21.0326 1.79349C16.6304 4.0761 17.1196 8.96741 17.9348 18.9131C17.9348 19.5652 17.7718 20.3804 17.4457 21.0326C16.7935 22.5 15.6522 23.8044 14.6739 24.9457C13.5326 26.5761 12.3913 28.2065 11.5761 30C9.61958 33.75 7.8261 38.4783 8.31523 40.2718C9.13045 40.1087 19.4022 55.7609 19.4022 56.087C20.0544 55.9239 22.8261 55.9239 25.2717 55.9239C28.6957 55.7609 30.6522 55.5978 33.4239 56.25C33.4239 55.7609 33.2609 55.2718 33.2609 54.7826C33.2609 53.8044 33.4239 52.9891 33.587 51.8478C33.75 51.0326 33.9131 50.2174 34.0761 49.2391C32.4457 50.7065 29.5109 52.337 26.7391 52.8261C24.2935 53.3152 20.2174 52.5 18.2609 50.0544C18.4239 50.0544 18.75 50.0544 18.9131 49.8913C19.4022 49.7283 19.8913 49.5652 20.0544 49.2391C20.5435 48.4239 20.2174 47.6087 19.8913 47.1196C19.5652 46.6305 17.1196 44.837 15.9783 43.8587C14.837 42.8805 14.1848 42.3913 13.5326 41.7391C13.5326 41.7391 12.5544 40.7609 12.2283 40.4348C11.9022 40.1087 11.7391 39.7826 11.5761 39.6196C11.25 38.8044 11.087 37.8261 11.25 36.5218C11.4131 34.7283 12.0652 33.2609 12.8804 31.6305C13.2065 30.9783 14.0218 29.6739 14.0218 29.6739C14.0218 29.6739 11.25 36.5218 12.7174 38.6413C12.7174 38.6413 12.8804 36.5218 13.5326 34.4022C14.0218 32.9348 14.837 30.8152 15.8152 29.6739C16.7935 28.5326 19.2391 24.2935 19.4022 21.6848C19.4022 20.5435 19.5652 19.4022 19.5652 18.587C18.9131 17.9348 30.3261 16.3044 30.9783 18.0978C31.1413 18.75 33.4239 24.6196 34.7283 27.7174C35.3804 29.1848 36.1957 30.4891 36.6848 32.1196C37.1739 33.9131 37.5 36.3587 37.5 38.8044C37.5 39.2935 37.5 40.1087 37.337 40.9239C37.6631 40.9239 44.0217 34.0761 36.5217 28.3696C36.5217 28.3696 41.087 30.4891 41.25 34.7283C41.413 38.1522 39.9457 40.9239 39.6196 41.4131C39.7826 41.4131 43.0435 42.8805 43.2065 42.8805C43.8587 42.8805 45.1631 42.3913 45.1631 42.3913C45.3261 41.9022 45.8152 40.5978 45.8152 40.1087C46.9565 36.3587 44.1848 30.3261 41.5761 26.5761Z" fill="#263238"/>
<path d="M20.8696 15.8152C22.0402 15.8152 22.9891 14.3553 22.9891 12.5543C22.9891 10.7534 22.0402 9.29346 20.8696 9.29346C19.699 9.29346 18.75 10.7534 18.75 12.5543C18.75 14.3553 19.699 15.8152 20.8696 15.8152Z" fill="#ECEFF1"/>
<path d="M28.2065 16.1413C29.7373 16.1413 30.9783 14.4624 30.9783 12.3913C30.9783 10.3202 29.7373 8.6413 28.2065 8.6413C26.6757 8.6413 25.4348 10.3202 25.4348 12.3913C25.4348 14.4624 26.6757 16.1413 28.2065 16.1413Z" fill="#ECEFF1"/>
<path d="M22.0537 12.7775C21.9182 11.7054 21.3014 10.9005 20.676 10.9795C20.0507 11.0586 19.6536 11.9917 19.7891 13.0637C19.9246 14.1357 20.5414 14.9407 21.1667 14.8616C21.7921 14.7826 22.1892 13.8495 22.0537 12.7775Z" fill="#212121"/>
<path d="M28.0435 15.163C28.944 15.163 29.6739 14.2141 29.6739 13.0435C29.6739 11.8729 28.944 10.9239 28.0435 10.9239C27.143 10.9239 26.4131 11.8729 26.4131 13.0435C26.4131 14.2141 27.143 15.163 28.0435 15.163Z" fill="#212121"/>
<path d="M49.7283 48.913C49.0761 48.5869 47.9348 48.0978 46.9565 46.6304C46.4674 45.8152 46.6304 43.5326 45.8152 42.5543C45.3261 41.9022 44.6739 42.2282 44.5109 42.2282C43.0435 42.5543 39.6196 44.8369 37.337 42.2282C37.0109 41.9022 36.5217 41.413 35.7065 41.413C34.8913 41.413 34.5652 41.7391 34.2391 42.3913C33.913 43.0435 33.913 43.5326 33.913 45.163C33.913 46.4674 33.913 47.9348 33.75 49.0761C33.4239 51.8478 32.9348 53.4782 32.9348 55.1087C32.9348 56.9022 33.4239 58.0435 34.0761 58.5326C34.5652 59.0217 35.3804 59.3478 37.1739 59.3478C38.9674 59.3478 40.1087 58.6956 41.25 57.5543C42.0652 56.7391 42.7174 56.413 45 54.7826C46.7935 53.6413 49.5652 52.1739 50.0543 51.6848C50.3804 51.3587 50.8696 51.1956 50.8696 50.2174C50.8696 49.4022 50.2174 49.0761 49.7283 48.913Z" fill="#FFC107"/>
<path d="M16.9565 49.4022C15.3261 46.7935 15.163 46.3043 14.0217 44.6739C13.0435 43.0435 10.9239 39.9456 9.61956 39.9456C8.6413 39.9456 8.15217 40.4348 7.5 41.087C6.84782 41.7391 6.19565 43.2065 5.05434 44.0217C4.07608 44.837 1.30434 44.6739 0.65217 45.6522C-3.49295e-06 46.6304 1.30435 48.0978 1.30435 50.5435C1.30435 51.5217 0.489127 52.1739 0.326084 52.8261C0.16304 53.6413 -3.16497e-06 54.1304 0.326084 54.7826C0.978258 55.7609 1.79347 56.087 7.33695 57.2283C10.2717 57.8804 13.0435 59.5109 14.837 59.6739C16.6304 59.837 19.7283 59.6739 19.7283 55.2717C19.8913 52.663 18.4239 52.0109 16.9565 49.4022Z" fill="#FFC107"/>
<path d="M20.0543 19.8913C19.0761 19.2391 18.2609 18.587 18.2609 17.6087C18.2609 16.6304 18.913 16.3043 19.8913 15.4891C20.0543 15.3261 21.8478 13.6956 23.6413 13.6956C25.4348 13.6956 27.5543 14.837 28.3696 15.163C29.837 15.4891 31.3043 15.8152 31.1413 16.9565C30.9783 18.587 30.8152 18.913 29.1848 19.7283C28.0435 20.0543 25.9239 21.8478 24.4565 21.8478C23.8043 21.8478 22.8261 21.8478 22.1739 21.6848C21.6848 21.5217 20.8696 20.7065 20.0543 19.8913Z" fill="#FFC107"/>
<path d="M19.7283 18.5869C20.0543 18.913 20.5435 19.2391 21.0326 19.4022C21.3587 19.5652 21.8478 19.7282 21.8478 19.7282C22.5 19.7282 22.9891 19.7282 23.3152 19.7282C24.1304 19.7282 25.2717 19.4022 26.413 18.75C27.5543 18.2609 27.7174 17.9348 28.5326 17.6087C29.3478 17.1195 30.163 16.6304 29.837 16.4674C29.5109 16.3043 29.1848 16.4674 28.0435 17.1195C27.0652 17.7717 26.25 18.0978 25.2717 18.5869C24.7826 18.75 24.1304 19.0761 23.6413 19.0761C23.1522 19.0761 22.663 19.0761 22.1739 19.0761C21.6848 19.0761 21.3587 18.913 20.8696 18.75C20.5435 18.5869 20.3804 18.4239 20.2174 18.4239C19.8913 18.2609 19.2391 17.6087 18.913 17.4456C18.913 17.4456 18.587 17.4456 18.75 17.6087C19.2391 18.0978 19.4022 18.2609 19.7283 18.5869Z" fill="#634703"/>
<path d="M24.6196 15C24.7826 15.3261 25.1087 15.3261 25.2717 15.4891C25.4348 15.6522 25.5978 15.6522 25.5978 15.6522C25.7609 15.4891 25.5978 15.163 25.4348 15.163C25.4348 14.8369 24.6196 14.8369 24.6196 15Z" fill="#634703"/>
<path d="M22.0109 15.3261C22.0109 15.4891 22.337 15.6522 22.337 15.4891C22.5 15.3261 22.663 15.163 22.8261 15.163C23.1522 15 22.9891 14.8369 22.5 14.8369C22.1739 15 22.1739 15.163 22.0109 15.3261Z" fill="#634703"/>
<path d="M37.8261 44.1848C37.8261 44.3478 37.8261 44.5109 37.8261 44.6739C38.1522 45.3261 38.9674 45.4891 39.6196 45.4891C40.5978 45.4891 41.5761 44.837 42.0652 44.1848C42.0652 44.0217 42.2283 43.8587 42.3913 43.6956C42.7174 43.2065 42.8804 42.8804 43.0435 42.7174C43.0435 42.7174 42.8804 42.5543 42.8804 42.3913C42.7174 42.0652 42.2283 41.7391 41.5761 41.5761C41.087 41.413 40.2717 41.25 39.9457 41.25C38.4783 41.087 37.663 41.5761 37.1739 42.0652C37.1739 42.0652 37.337 42.0652 37.337 42.2283C37.6631 42.5543 37.8261 42.8804 37.8261 43.3696C37.9891 43.6956 37.8261 43.8587 37.8261 44.1848Z" fill="#455A64"/>
</svg>
