<svg width="228" height="60" viewBox="0 0 228 60" fill="none" xmlns="http://www.w3.org/2000/svg">
<path fill-rule="evenodd" clip-rule="evenodd" d="M212.456 24.7996C212.251 24.8374 212.045 25.2551 212.045 25.4826C212.004 27.0018 211.963 31.0268 211.963 33.7606C211.963 33.8367 212.086 33.9886 212.21 33.9886C212.827 34.0264 214.307 34.0643 215.582 34.0643C217.351 34.0643 218.379 33.8367 218.955 33.6092C220.435 32.9253 221.134 31.4444 221.134 29.8113C221.134 26.1286 218.338 24.7234 214.184 24.7234C213.896 24.6856 213.074 24.6856 212.456 24.7996V24.7996ZM223.068 41.7728C223.068 38.0136 220.065 35.925 214.636 35.925C214.389 35.925 212.662 35.8871 212.251 35.9628C212.127 36.0011 211.963 36.0772 211.963 36.1912C211.963 38.8867 211.922 43.178 212.045 44.8486C212.127 45.5699 212.704 46.5953 213.403 46.8989C214.143 47.2787 215.829 47.3544 216.981 47.3544C220.23 47.3544 223.068 45.6839 223.068 41.7728V41.7728ZM204.067 22.7113C204.478 22.7113 205.711 22.8249 208.878 22.8249C211.881 22.8249 214.266 22.7492 217.186 22.7492C220.764 22.7492 225.699 23.926 225.699 28.8624C225.699 31.2926 223.848 33.2294 221.422 34.1787C221.299 34.2165 221.299 34.2922 221.422 34.3301C224.877 35.1279 227.92 37.1022 227.92 40.8231C227.92 44.4688 225.453 46.785 221.875 48.228C219.695 49.1011 216.981 49.4048 214.225 49.4048C212.127 49.4048 206.493 49.1773 203.368 49.2534C203.039 49.139 203.656 47.7721 203.943 47.5445C204.684 47.5063 205.259 47.4684 206.041 47.2405C207.151 46.9751 207.274 46.671 207.439 45.1144C207.521 43.7853 207.521 39.0764 207.521 35.7353C207.521 31.1408 207.563 28.0272 207.521 26.5084C207.48 25.3316 207.028 24.9514 206.123 24.7234C205.424 24.6099 204.272 24.4576 203.326 24.3441C203.12 24.154 203.82 22.8628 204.067 22.7113ZM180.336 46.3295C181.323 47.0504 183.256 47.354 184.984 47.354C187.205 47.354 189.425 46.9751 191.564 45.1897C193.744 43.3677 195.265 40.5577 195.265 36.0772C195.265 31.786 193.497 28.2926 189.878 26.2426C187.821 25.065 185.189 24.572 182.146 24.572C181.241 24.572 180.377 24.6099 179.843 24.8374C179.719 24.9135 179.432 25.2551 179.432 25.4448C179.349 26.2043 179.349 32.0518 179.349 35.4695C179.349 39.0007 179.349 43.9372 179.432 44.5066C179.432 45.0765 179.719 45.9497 180.336 46.3295H180.336ZM171 22.7109C171.782 22.7109 174.784 22.8249 176.223 22.8249C178.815 22.8249 180.665 22.7113 185.559 22.7113C189.672 22.7113 193.127 23.7363 195.594 25.6727C198.596 28.065 200.16 31.3687 200.16 35.3933C200.16 41.1272 197.322 44.4309 194.484 46.3295C191.647 48.2658 187.945 49.4048 182.681 49.4048C179.884 49.4048 175.072 49.3291 171.082 49.2908H171.041C170.836 48.9493 171.37 47.6202 171.699 47.5824C172.769 47.4684 173.057 47.4301 173.592 47.2409C174.455 46.9368 174.62 46.5191 174.743 45.1144C174.866 42.4941 174.825 39.3427 174.825 35.7731C174.825 33.2294 174.866 28.2547 174.784 26.6598C174.661 25.3312 174.044 24.9893 172.81 24.7613C172.193 24.6477 171.37 24.4955 170.219 24.3819C170.054 24.1157 170.795 22.9389 171 22.7113V22.7109Z" fill="#8E714E"/>
<path fill-rule="evenodd" clip-rule="evenodd" d="M121.237 47.8085C120.208 47.6945 119.468 47.5431 118.563 47.1633C118.44 47.0872 118.234 46.7078 118.234 46.5556C118.152 45.2265 118.152 41.4294 118.152 38.8857C118.152 36.8349 117.782 35.0503 116.836 33.7974C115.725 32.3539 114.122 31.5191 112.065 31.5191C110.256 31.5191 107.829 32.658 105.814 34.2529C105.773 34.2907 105.444 34.557 105.485 34.1389C105.485 33.7213 105.567 32.886 105.608 32.3161C105.65 31.7845 105.32 31.5191 105.32 31.5191C104.004 32.1264 100.303 32.9238 98.9456 33.0374C97.9589 33.2279 97.712 34.1011 98.7406 34.4047H98.7816C99.8913 34.7084 100.632 35.0503 101.207 35.3923C101.619 35.6959 101.578 36.1136 101.578 36.4555C101.619 39.3029 101.619 43.6699 101.496 46.0622C101.455 47.0115 101.167 47.353 100.426 47.5048L100.509 47.467C99.9327 47.5809 99.4804 47.6945 98.7811 47.7706C98.5342 47.9986 98.5342 49.2137 98.7811 49.4795C99.2335 49.4795 101.619 49.3655 103.593 49.3655C106.308 49.3655 107.706 49.4795 108.405 49.4795C108.693 49.1758 108.775 48.0364 108.611 47.7706C107.829 47.7328 107.253 47.6571 106.719 47.5048C105.979 47.3526 105.773 47.0115 105.731 46.214C105.65 44.2011 105.65 39.9485 105.65 37.0628C105.65 36.2654 105.896 35.8856 106.143 35.6577C107.089 34.8985 108.611 34.3669 109.968 34.3669C111.284 34.3669 112.147 34.7467 112.805 35.2404C113.71 35.9235 113.998 36.911 114.121 37.6323C114.327 39.2651 114.245 42.4927 114.245 45.3026C114.245 46.8214 114.121 47.2012 113.505 47.3908C113.217 47.5048 112.477 47.6571 111.613 47.7324C111.325 47.9986 111.407 49.1758 111.613 49.4416C112.805 49.4416 114.204 49.3277 116.26 49.3277C118.81 49.3277 120.455 49.4416 121.114 49.4416C121.319 49.2137 121.401 48.1126 121.237 47.8085V47.8085ZM132.629 33.304C130.449 33.304 129.092 34.8606 129.092 37.2904C129.092 39.7588 130.285 42.6066 133.657 42.6066C134.233 42.6066 135.302 42.3787 135.795 41.8471C136.577 41.164 137.112 39.7967 137.112 38.3536C137.112 35.2022 135.425 33.3036 132.629 33.3036V33.304ZM132.341 50.0868C131.519 50.0868 130.942 50.3148 130.572 50.5049C128.845 51.5295 128.064 52.517 128.064 53.6946C128.064 54.7953 128.516 55.6685 129.503 56.4281C130.696 57.3773 132.341 57.8332 134.438 57.8332C138.633 57.8332 140.484 55.7446 140.484 53.6946C140.484 52.2512 139.702 51.3019 138.099 50.7707C136.947 50.3148 134.85 50.0868 132.341 50.0868V50.0868ZM132.629 59.9597C130.12 59.9597 128.31 59.466 126.748 58.3649C125.226 57.3016 124.568 55.7067 124.568 54.6056C124.568 54.302 124.65 53.4663 125.391 52.7071C125.843 52.2512 126.83 51.378 129.174 49.8971C129.256 49.8593 129.297 49.8214 129.297 49.7449C129.297 49.6692 129.215 49.5931 129.133 49.5556C127.2 48.8722 126.624 47.7706 126.459 47.1633V47.0872C126.419 46.8592 126.336 46.6317 126.707 46.4037C126.995 46.214 127.406 45.9861 127.858 45.7207C128.557 45.3405 129.297 44.9228 129.75 44.5809C129.832 44.5052 129.832 44.4295 129.832 44.3533C129.832 44.2772 129.75 44.2011 129.667 44.1637C126.789 43.2901 125.35 41.3154 125.35 38.3536C125.35 36.4172 126.295 34.6705 127.981 33.5694C129.133 32.7341 132.012 31.7087 133.904 31.7087H134.027C135.96 31.7466 137.029 32.1264 138.551 32.6202C139.374 32.886 140.155 32.9995 141.225 32.9995C142.828 32.9995 143.528 32.544 144.103 32.0128C144.144 32.0885 144.227 32.2786 144.268 32.772C144.309 33.2658 144.144 33.9871 143.733 34.5187C143.404 34.9363 142.664 35.2404 141.924 35.2404H141.718C140.978 35.1643 140.648 35.0882 140.648 35.0882L140.484 35.1643C140.443 35.2404 140.484 35.3161 140.525 35.4301L140.567 35.5062C140.649 35.8478 140.813 36.8727 140.813 37.139C140.813 40.2526 139.456 41.6191 138.016 42.6445C136.618 43.5938 135.014 44.2011 133.205 44.3533C133.164 44.3533 133 44.3533 132.629 44.3912C132.423 44.3912 132.135 44.4295 132.094 44.4295H132.053C131.724 44.5052 130.902 44.885 130.902 45.5302C130.902 46.0996 131.272 46.7835 133.04 46.8975C133.41 46.9353 133.78 46.9353 134.192 46.9736C136.536 47.125 139.456 47.3151 140.813 47.7328C142.705 48.378 143.898 49.935 143.898 51.7957C143.898 54.606 141.718 57.2259 138.099 58.8582C136.331 59.5799 134.562 59.9597 132.629 59.9597V59.9597ZM156.071 33.4937C155.208 33.4937 154.426 33.683 153.85 34.0628C152.247 34.9742 151.424 36.797 151.424 39.4547C151.424 44.4295 154.138 47.9229 158.004 47.9229C159.156 47.9229 160.061 47.6188 160.842 47.0115C162.034 46.0996 162.652 44.2772 162.652 41.7331C162.652 36.797 159.978 33.4933 156.071 33.4933L156.071 33.4937ZM156.812 49.7453C149.82 49.7453 147.311 44.9989 147.311 40.5563C147.311 37.4426 148.668 35.0503 151.383 33.3415C153.316 32.2404 155.619 31.633 157.675 31.633C163.022 31.633 166.764 35.1643 166.764 40.2526C166.764 43.7077 165.284 46.4416 162.446 48.1126C161.089 48.9479 158.745 49.7453 156.811 49.7453H156.812V49.7453ZM83.5232 33.4933C82.6595 33.4933 81.8782 33.683 81.302 34.0628C79.6985 34.9742 78.8757 36.797 78.8757 39.4547C78.8757 44.4295 81.5899 47.9229 85.4561 47.9229C86.6077 47.9229 87.5124 47.6188 88.2941 47.0115C89.4862 46.0996 90.1035 44.2772 90.1035 41.7331C90.1035 36.797 87.4714 33.4933 83.5232 33.4933ZM84.2634 49.7453C77.2718 49.7453 74.7631 44.9989 74.7631 40.5563C74.7631 37.4426 76.1202 35.0503 78.8343 33.3415C80.7676 32.2404 83.0708 31.633 85.1271 31.633C90.4738 31.633 94.2161 35.1643 94.2161 40.2526C94.2161 43.7077 92.7356 46.4416 89.8976 48.1126C88.5815 48.9479 86.2373 49.7453 84.2634 49.7453ZM37.2552 49.3655C37.1727 49.2519 37.0903 48.91 37.1317 48.4924C37.1317 48.1883 37.2142 47.9986 37.2552 47.9229C38.1189 47.8085 38.5712 47.6945 39.0646 47.5809C39.8873 47.3908 40.2162 46.9736 40.2572 46.0243C40.3811 43.746 40.3811 39.4169 40.3396 36.4172V36.3411C40.3396 35.9996 40.3396 35.5815 39.8873 35.2779C39.229 34.8985 38.4478 34.557 37.4196 34.2903C37.0497 34.1772 36.8028 33.9871 36.8438 33.7595C36.8438 33.5316 37.0907 33.2658 37.6255 33.1896C38.9826 33.0757 42.519 32.2786 43.9175 31.7087C43.9999 31.7845 44.1234 32.0128 44.1234 32.3165L44.0824 32.7337C44.0409 33.1518 43.9999 33.6456 43.9999 34.1389C43.9999 34.2907 44.1648 34.4047 44.3288 34.4047C44.4113 34.4047 44.4937 34.3669 44.5757 34.3286C47.2078 32.4301 49.5931 31.7466 50.8267 31.7466C52.8424 31.7466 54.4054 32.6202 55.598 34.4426C55.68 34.557 55.7625 34.5948 55.8859 34.5948C55.9679 34.5948 56.0909 34.557 56.1324 34.4808C58.559 32.772 60.9857 31.7466 62.5892 31.7466C66.4139 31.7466 68.6762 34.3669 68.6762 38.8096C68.6762 40.0625 68.6762 41.6952 68.6352 43.1765C68.6352 44.5052 68.5942 45.7203 68.5942 46.5938C68.5942 46.7831 68.8816 47.3908 69.334 47.5048C69.9098 47.7706 70.6915 47.8846 71.7196 48.0365H71.7606C71.8431 48.3023 71.6786 49.2894 71.5142 49.4795C71.2673 49.4795 70.8969 49.4795 70.486 49.4416C69.4449 49.3915 68.4026 49.3661 67.3601 49.3655C64.8104 49.3655 63.4944 49.4034 62.2189 49.4795C62.1373 49.1758 62.0959 48.2644 62.2189 48.0365C62.9596 47.9229 63.3295 47.8085 63.7823 47.6949C64.605 47.467 64.8104 47.125 64.8519 46.1379C64.8519 45.4166 65.0159 39.2651 64.769 37.7842C64.5225 36.2654 63.2885 34.4808 60.5739 34.4808C59.5457 34.4808 57.9422 34.8606 56.3793 35.9613C56.2973 36.0375 56.2144 36.2271 56.2144 36.3411V36.3794C56.3793 37.1764 56.3793 38.0882 56.3793 39.493V41.961C56.3793 43.6699 56.3378 45.2648 56.3793 46.4794C56.3793 47.3151 56.9141 47.5048 57.3664 47.6571C57.6133 47.6945 57.7773 47.7328 57.9832 47.7706C58.3531 47.8468 58.7235 47.9229 59.2993 48.0365C59.3817 48.1887 59.3817 48.6821 59.2583 49.0997C59.2168 49.3277 59.1344 49.4412 59.0934 49.4795C57.6953 49.4416 56.2558 49.4034 54.1585 49.4034C53.5417 49.4034 52.4721 49.4416 51.5674 49.4416C50.8267 49.4416 50.1279 49.4795 49.717 49.4795C49.6755 49.4034 49.5931 49.138 49.5931 48.7199C49.5931 48.3784 49.6755 48.1126 49.758 48.0365C49.9634 47.9986 50.1279 47.9607 50.3338 47.9607C50.8267 47.8846 51.2385 47.8085 51.6494 47.7328C52.3491 47.5431 52.5955 47.2012 52.6365 46.3659C52.76 44.4673 52.8834 39.0375 52.5955 37.6702C52.1022 35.468 50.7451 34.3669 48.5649 34.3669C47.2903 34.3669 45.6859 34.9363 44.3703 35.8482C44.1644 35.9996 43.9999 36.379 43.9999 36.7209V38.9614C43.9999 41.6952 43.9999 45.1129 44.0409 46.5938C44.0824 47.0489 44.2464 47.5809 45.1925 47.7706C45.3984 47.8085 45.7273 47.8846 46.1387 47.9229L46.8785 48.0365C46.9614 48.2644 46.9199 49.1758 46.7555 49.4795C46.3441 49.4795 45.8508 49.4416 45.2745 49.4416C44.4113 49.4034 43.3007 49.3655 42.067 49.3655C40.6275 49.3655 39.5994 49.4034 38.7767 49.4416C38.2009 49.3655 37.7485 49.3655 37.2552 49.3655V49.3655Z" fill="#442D22"/>
<path fill-rule="evenodd" clip-rule="evenodd" d="M15.6223 58.4798L13.9363 57.9477C13.9363 57.9477 14.1422 50.0121 11.0573 49.4426C9.00143 47.24 11.3871 -43.9671 18.7897 49.1385C18.7897 49.1385 16.2395 50.3153 15.7872 52.3283C15.2934 54.3029 15.6223 58.4798 15.6223 58.4798V58.4798Z" fill="white"/>
<path fill-rule="evenodd" clip-rule="evenodd" d="M15.6223 58.4798L13.9363 57.9477C13.9363 57.9477 14.1422 50.0121 11.0573 49.4426C9.00143 47.24 11.3871 -43.9671 18.7897 49.1385C18.7897 49.1385 16.2395 50.3153 15.7872 52.3283C15.2934 54.3029 15.6223 58.4798 15.6223 58.4798V58.4798Z" fill="#A6A385"/>
<path fill-rule="evenodd" clip-rule="evenodd" d="M16.5269 50.8089C16.5269 50.8089 31.292 41.8474 27.8367 23.2031C24.5057 9.64798 16.6504 5.20531 15.7867 3.49646C14.841 2.28138 13.9358 0.1553 13.9358 0.1553L14.5531 37.8602C14.5531 37.8985 13.278 49.4037 16.5274 50.8093" fill="white"/>
<path fill-rule="evenodd" clip-rule="evenodd" d="M16.5269 50.8089C16.5269 50.8089 31.292 41.8474 27.8367 23.2031C24.5057 9.64798 16.6504 5.20531 15.7867 3.49646C14.841 2.28138 13.9358 0.1553 13.9358 0.1553L14.5531 37.8602C14.5531 37.8985 13.278 49.4037 16.5274 50.8093" fill="#499D4A"/>
<path fill-rule="evenodd" clip-rule="evenodd" d="M13.0728 51.3079C13.0728 51.3079 -0.787477 42.5744 0.0352275 27.1964C0.816485 11.8181 10.6047 4.26177 12.4966 2.89486C13.7306 1.67978 13.7716 1.22386 13.8541 0.00878525C14.7178 1.71763 14.5533 25.5637 14.6763 28.3733C15.0463 39.195 14.0185 49.258 13.0728 51.3079Z" fill="white"/>
<path fill-rule="evenodd" clip-rule="evenodd" d="M13.0728 51.3079C13.0728 51.3079 -0.787477 42.5744 0.0352275 27.1964C0.816485 11.8181 10.6047 4.26177 12.4966 2.89486C13.7306 1.67978 13.7716 1.22386 13.8541 0.00878525C14.7178 1.71763 14.5533 25.5637 14.6763 28.3733C15.0463 39.195 14.0185 49.258 13.0728 51.3079Z" fill="#58AA50"/>
</svg>
