<svg width="98" height="60" viewBox="0 0 98 60" fill="none" xmlns="http://www.w3.org/2000/svg">
<path d="M23.4096 54.5821H19.6968C19.5655 48.931 19.2039 43.6182 18.6127 38.64H18.5797L12.9268 54.5821H10.1L4.48088 38.64H4.4486C4.03175 43.4196 3.76916 48.7337 3.66011 54.5821H0.275848C0.493956 47.4702 1.0421 40.8027 1.91811 34.5791H6.5199L11.8757 49.2771H11.9087L17.2976 34.5791H21.7006C22.6649 41.8689 23.2346 48.537 23.4096 54.5821V54.5821ZM39.5116 39.8239C37.9999 47.2211 36.0054 52.596 33.5301 55.951C31.6016 58.5337 29.4887 59.8263 27.1878 59.8263C26.5743 59.8263 25.8174 59.6594 24.9206 59.3281V57.5445C25.359 57.6014 25.8734 57.6338 26.4646 57.6338C27.5393 57.6338 28.4031 57.3672 29.0618 56.8328C29.8495 56.182 30.2434 55.4503 30.2434 54.641C30.2434 54.0859 29.9364 52.9511 29.3237 51.2328L25.2492 39.8232H28.8968L31.8211 48.3565C32.4783 50.2941 32.7524 51.6469 32.6426 52.4174C34.2418 48.5661 35.3589 44.3668 35.9953 39.8226H39.5116V39.8239V39.8239Z" fill="#5D87A1"/>
<path d="M88.9333 54.5825H78.3866V34.5795H81.9344V52.1203H88.9333V54.5825ZM75.6258 55.0658L71.5478 53.2511C71.9094 52.9833 72.2552 52.6934 72.5666 52.3577C74.3 50.5216 75.1645 47.8064 75.1645 44.21C75.1645 37.5924 72.2846 34.2819 66.5227 34.2819C63.6974 34.2819 61.4933 35.1217 59.9171 36.8018C58.1851 38.6391 57.3206 41.3447 57.3206 44.9216C57.3206 48.4378 58.0869 51.0172 59.6201 52.6533C61.0227 54.1355 63.137 54.8776 65.9645 54.8776C67.0192 54.8776 67.9871 54.7611 68.8688 54.5263L74.178 57.3133L75.6258 55.0658ZM62.4153 50.5799C61.517 49.2769 61.0679 47.1847 61.0679 44.2999C61.0679 39.2634 62.7647 36.7423 66.1618 36.7423C67.9376 36.7423 69.239 37.3452 70.0713 38.5486C70.9681 39.8534 71.4194 41.9269 71.4194 44.7716C71.4194 49.8495 69.7212 52.3887 66.3261 52.3887C64.5497 52.3894 63.2482 51.7884 62.4153 50.5799V50.5799ZM55.7745 49.0382C55.7745 50.7345 55.0843 52.1261 53.7053 53.2162C52.3249 54.3018 50.4739 54.8459 48.1544 54.8459C45.9848 54.8459 43.8812 54.2209 41.845 52.9775L42.7985 51.2598C44.5506 52.051 46.1369 52.4444 47.561 52.4444C48.8976 52.4444 49.9423 52.1772 50.6999 51.6473C51.4568 51.1155 51.9081 50.3696 51.9081 49.4264C51.9081 48.2379 50.989 47.2222 49.303 46.3715C47.7483 45.6016 44.6388 43.992 44.6388 43.992C42.9535 42.8844 42.1098 41.6953 42.1098 39.7364C42.1098 38.1151 42.739 36.8063 43.9981 35.8107C45.2587 34.8111 46.8852 34.313 48.879 34.313C50.9381 34.313 52.8099 34.8105 54.496 35.7951L53.6408 37.5134C52.1987 36.9609 50.7752 36.6847 49.3712 36.6847C48.234 36.6847 47.3558 36.9312 46.7453 37.4261C46.1297 37.9191 45.7502 38.5498 45.7502 39.3236C45.7502 40.5062 46.6886 41.5349 48.4205 42.4024C49.9961 43.1736 53.183 44.811 53.183 44.811C54.9114 45.9167 55.7745 47.0948 55.7745 49.0382" fill="#F8981D"/>
<path d="M93.386 27.8803C91.2408 27.8311 89.5798 28.0259 88.1858 28.5577C87.7833 28.7026 87.1433 28.7026 87.0874 29.1613C87.3048 29.3553 87.3299 29.6685 87.5186 29.9363C87.84 30.4196 88.4003 31.0698 88.9119 31.4088C89.4737 31.7969 90.0376 32.1812 90.6288 32.5196C91.6712 33.1012 92.8529 33.4395 93.8688 34.0192C94.4607 34.3563 95.049 34.7923 95.6417 35.1552C95.933 35.3487 96.1195 35.6625 96.4976 35.7834V35.7097C96.3082 35.4923 96.2544 35.1779 96.0686 34.9359L95.2636 34.2359C94.4858 33.294 93.5194 32.4717 92.4769 31.7963C91.6189 31.2632 89.742 30.5386 89.394 29.6471L89.3395 29.598C89.9292 29.5481 90.6288 29.3553 91.1891 29.2072C92.101 28.9905 92.9325 29.0396 93.8681 28.8229C94.2986 28.7259 94.7255 28.6042 95.1574 28.4846V28.2665C94.6724 27.8311 94.3266 27.2528 93.8165 26.8413C92.4518 25.7784 90.948 24.7387 89.394 23.8686C88.5618 23.384 87.4913 23.0722 86.6053 22.6601C86.286 22.5145 85.7479 22.4427 85.5599 22.2007C85.0792 21.6689 84.8087 20.9689 84.46 20.3395C83.6852 19.0113 82.9326 17.5375 82.2639 16.133C81.7803 15.191 81.4862 14.2504 80.8964 13.3789C78.1342 9.27081 75.1345 6.78264 70.5241 4.34041C69.5333 3.8319 68.3545 3.61518 67.0953 3.34863L65.0843 3.25289C64.6552 3.08338 64.2255 2.6234 63.851 2.40603C62.3214 1.53653 58.3832 -0.348035 57.2582 2.14013C56.5336 3.71287 58.3301 5.25907 58.9471 6.05676C59.4027 6.61055 59.9932 7.24068 60.3117 7.86951C60.5004 8.28033 60.5535 8.71637 60.7422 9.15047C61.1713 10.2141 61.5723 11.3973 62.1362 12.3897C62.4304 12.8957 62.7511 13.4275 63.1271 13.8855C63.3423 14.1533 63.7168 14.2717 63.7986 14.7084C63.4248 15.1897 63.3954 15.9163 63.1809 16.5205C62.2166 19.2513 62.5933 22.6342 63.96 24.641C64.3876 25.2453 65.4079 26.5754 66.7725 26.0656C67.9807 25.6309 67.7131 24.2535 68.0603 23.0457C68.14 22.7539 68.0876 22.5624 68.2483 22.3709V22.4181C68.6221 23.0942 68.9995 23.7456 69.346 24.4237C70.1775 25.6069 71.6254 26.84 72.8314 27.6597C73.4736 28.097 73.9822 28.8449 74.7865 29.1121V29.0396H74.7334C74.5706 28.8229 74.3324 28.7259 74.1186 28.5577C73.635 28.1223 73.0998 27.5905 72.7245 27.1078C71.601 25.7538 70.6066 24.2548 69.7241 22.7079C69.2922 21.9575 68.9198 21.1372 68.5719 20.388C68.4097 20.0988 68.4097 19.6628 68.1407 19.5172C67.7375 20.0483 67.1499 20.5083 66.8557 21.1591C66.3456 22.2001 66.2925 23.4804 66.1031 24.8118L65.9976 24.8584C65.1438 24.665 64.8468 23.8686 64.5225 23.1925C63.7197 21.4755 63.5848 18.7195 64.2815 16.7385C64.468 16.232 65.2751 14.6366 64.953 14.154C64.7916 13.6914 64.2549 13.4281 63.9607 13.0639C63.6149 12.6058 63.2361 12.0262 62.995 11.5177C62.3522 10.1649 62.0286 8.66591 61.3363 7.31379C61.0127 6.68366 60.4509 6.03153 59.9961 5.45122C59.4852 4.79909 58.9235 4.33976 58.5195 3.56666C58.3861 3.30076 58.1988 2.86601 58.4133 2.57682C58.4657 2.38274 58.5748 2.31028 58.7886 2.26176C59.1358 1.99716 60.1281 2.33357 60.476 2.47913C61.4697 2.84142 62.3005 3.17978 63.1299 3.68699C63.5052 3.92959 63.9077 4.38893 64.3891 4.50991H64.953C65.8089 4.67811 66.7739 4.55649 67.5796 4.77516C68.9995 5.18662 70.2859 5.79022 71.4396 6.4417C74.9501 8.44918 77.8451 11.3016 79.7994 14.7084C80.1201 15.2635 80.2564 15.772 80.5492 16.351C81.1138 17.5362 81.8119 18.7447 82.3722 19.9047C82.9354 21.0401 83.4721 22.1994 84.2764 23.1427C84.6774 23.6499 86.2889 23.9158 87.0113 24.1817C87.5458 24.3984 88.3781 24.5912 88.8602 24.8571C89.7721 25.3637 90.6804 25.9453 91.5378 26.5023C91.9647 26.7921 93.3063 27.3964 93.386 27.8803V27.8803ZM66.0464 6.87774C65.6764 6.87427 65.3075 6.91517 64.9494 6.99937V7.04789H65.0011C65.217 7.43412 65.5923 7.70196 65.8599 8.03902C66.0758 8.42654 66.2631 8.81083 66.4747 9.1977L66.5264 9.14983C66.9045 8.90852 67.0925 8.52164 67.0925 7.94133C66.9296 7.77053 66.9045 7.60362 66.7689 7.43412C66.611 7.19216 66.2631 7.07183 66.0464 6.87774" fill="#5D87A1"/>
<path d="M95.9389 54.5792H96.4942V52.1285H95.6612L94.9818 53.8009L94.2435 52.1285H93.4414V54.5792H93.9659V52.7146H93.9953L94.7687 54.5792H95.1683L95.9389 52.7146V54.5792ZM91.4655 54.5792H92.0531V52.5438H92.8222V52.1279H90.6641V52.5438H91.4641L91.4655 54.5792Z" fill="#F8981D"/>
</svg>
