<svg width="98" height="60" viewBox="0 0 98 60" fill="none" xmlns="http://www.w3.org/2000/svg">
<path d="M48.0667 59.6203C47.7458 59.6203 47.4271 59.5361 47.1458 59.3742L44.2148 57.6389C43.777 57.3941 43.9906 57.3075 44.135 57.2576C44.7187 57.0532 44.8372 57.0071 45.4602 56.6532C45.5257 56.6159 45.6114 56.6291 45.6784 56.6686L47.9302 58.0048C48.0115 58.0488 48.1269 58.0488 48.2023 58.0048L56.982 52.937C57.0633 52.8908 57.116 52.7963 57.116 52.6996V42.5684C57.116 42.4673 57.0633 42.3772 56.9802 42.3266L48.204 37.2632C48.1227 37.2148 48.015 37.2148 47.9337 37.2632L39.1592 42.3266C39.0742 42.375 39.0201 42.4695 39.0201 42.5662V52.6974C39.0201 52.7941 39.0729 52.8864 39.1564 52.9326L41.5607 54.3215C42.8661 54.9742 43.6638 54.205 43.6638 53.4315V43.432C43.6638 43.2892 43.7759 43.1793 43.9188 43.1793H45.0308C45.1692 43.1793 45.2835 43.2892 45.2835 43.432V53.4358C45.2835 55.1764 44.3341 56.1763 42.6837 56.1763C42.176 56.1763 41.776 56.1763 40.6596 55.6269L38.3564 54.2995C38.0764 54.1361 37.8441 53.9023 37.6825 53.6212C37.521 53.3401 37.4358 53.0216 37.4356 52.6974V42.5662C37.4356 41.9069 37.7872 41.2915 38.3564 40.9663L47.145 35.8962C47.701 35.582 48.4394 35.582 48.991 35.8962L57.7685 40.9685C58.0485 41.1313 58.2809 41.3648 58.4425 41.6455C58.604 41.9263 58.6892 42.2445 58.6894 42.5684V52.6996C58.6894 53.3567 58.3355 53.9699 57.7685 54.2995L48.991 59.3696C48.7096 59.5316 48.3905 59.6165 48.0658 59.6157" fill="#689F63"/>
<path d="M50.7776 52.6393C46.9362 52.6393 46.1307 50.8759 46.1307 49.3968C46.1307 49.2562 46.2441 49.1441 46.385 49.1441H47.519C47.6443 49.1441 47.7497 49.2353 47.7695 49.359C47.9409 50.5146 48.4508 51.0974 50.7737 51.0974C52.6241 51.0974 53.4109 50.6794 53.4109 49.6981C53.4109 49.1333 53.1867 48.7136 50.3122 48.4323C47.908 48.1949 46.4224 47.6653 46.4224 45.7423C46.4224 43.971 47.9168 42.9162 50.4199 42.9162C53.2306 42.9162 54.6239 43.8919 54.7998 45.9885C54.8027 46.0237 54.7983 46.0592 54.7868 46.0927C54.7753 46.1261 54.757 46.1568 54.733 46.1828C54.7091 46.2089 54.68 46.2296 54.6476 46.2438C54.6152 46.2581 54.5802 46.2654 54.5448 46.2654H53.4043C53.2856 46.2654 53.1823 46.1819 53.1581 46.0676C52.8834 44.8523 52.2197 44.4633 50.4155 44.4633C48.3958 44.4633 48.1607 45.1666 48.1607 45.694C48.1607 46.3335 48.4376 46.5203 51.1627 46.8807C53.8614 47.239 55.1426 47.7444 55.1426 49.641C55.1426 51.553 53.5471 52.6496 50.7649 52.6496L50.7776 52.6393ZM61.4586 41.9052H61.7531C61.9948 41.9052 62.041 41.736 62.041 41.6371C62.041 41.3778 61.863 41.3778 61.7641 41.3778H61.4608L61.4586 41.9052ZM61.1004 41.0745H61.7531C61.9772 41.0745 62.4168 41.0745 62.4168 41.5756C62.4168 41.925 62.1926 41.9975 62.0586 42.0415C62.3201 42.0591 62.3377 42.2305 62.3728 42.4722C62.3904 42.6239 62.419 42.8854 62.4717 42.9733H62.0695C62.0586 42.8854 61.997 42.4019 61.997 42.3755C61.9707 42.2678 61.9333 42.2151 61.7992 42.2151H61.4674V42.9755H61.1004V41.0745ZM60.3158 42.0195C60.3158 42.8063 60.9509 43.4436 61.7311 43.4436C62.5179 43.4436 63.153 42.7931 63.153 42.0195C63.153 41.2305 62.5091 40.6042 61.7289 40.6042C60.9597 40.6042 60.3136 41.2217 60.3136 42.0173L60.3158 42.0195ZM63.4255 42.0239C63.4255 42.9557 62.6629 43.7161 61.7333 43.7161C60.8103 43.7161 60.0411 42.9645 60.0411 42.0239C60.0411 41.0657 60.8279 40.3317 61.7333 40.3317C62.6453 40.3317 63.4233 41.0679 63.4233 42.0239" fill="#689F63"/>
<path fill-rule="evenodd" clip-rule="evenodd" d="M20.8793 19.9791C20.8793 19.5748 20.6661 19.2034 20.3172 19.0023L11.0088 13.6466C10.8531 13.5558 10.6772 13.5052 10.4971 13.4993H10.4009C10.2224 13.5059 10.0464 13.5543 9.88663 13.6466L0.578665 19.0023C0.407525 19.1018 0.265478 19.2445 0.166686 19.4161C0.0678942 19.5877 0.0158095 19.7822 0.015625 19.9802L0.0360632 34.4057C0.0360632 34.6057 0.139353 34.7925 0.315166 34.8914C0.486583 34.9969 0.701954 34.9969 0.873371 34.8914L6.40708 31.7224C6.7565 31.5145 6.96968 31.147 6.96968 30.7466V24.0075C6.96927 23.8101 7.02099 23.6162 7.11958 23.4452C7.21818 23.2743 7.36016 23.1324 7.53118 23.0339L9.88707 21.677C10.0579 21.5778 10.2521 21.5256 10.4497 21.5258C10.6422 21.5258 10.8387 21.5755 11.0088 21.6768L13.3635 23.0332C13.7121 23.2332 13.9261 23.6046 13.9261 24.0068V30.7455C13.9261 31.1455 14.1422 31.5147 14.4898 31.7213L20.02 34.8881C20.1051 34.9388 20.2023 34.9656 20.3013 34.9656C20.4004 34.9656 20.4976 34.9388 20.5826 34.8881C20.6673 34.8384 20.7376 34.7674 20.7864 34.6822C20.8353 34.5971 20.8611 34.5006 20.8613 34.4024L20.8793 19.9791ZM64.8035 27.4899C64.8035 27.5903 64.7501 27.6833 64.6628 27.7329L61.4657 29.5759C61.423 29.6004 61.3746 29.6133 61.3254 29.6133C61.2761 29.6133 61.2277 29.6004 61.185 29.5759L57.9874 27.7329C57.8995 27.683 57.8468 27.5901 57.8468 27.4899V23.7987C57.8468 23.698 57.8995 23.6053 57.9852 23.5547L61.1806 21.7087C61.2685 21.6581 61.3762 21.6581 61.4641 21.7087L64.6617 23.5547C64.7496 23.6053 64.8024 23.698 64.8024 23.7987L64.8035 27.4899ZM65.6672 0.150478C65.5815 0.102819 65.4849 0.0783027 65.3868 0.0793432C65.2888 0.0803836 65.1927 0.106945 65.1081 0.156412C64.9367 0.257504 64.8307 0.442108 64.8307 0.642096V14.9269C64.8308 14.996 64.8127 15.0639 64.7782 15.1237C64.7438 15.1836 64.6941 15.2332 64.6343 15.2678C64.5745 15.3023 64.5066 15.3205 64.4376 15.3205C64.3685 15.3204 64.3007 15.3022 64.2409 15.2676L61.9092 13.9246C61.7384 13.8259 61.5447 13.7739 61.3474 13.7739C61.1502 13.7739 60.9565 13.8259 60.7857 13.9246L51.4742 19.2985C51.3034 19.3968 51.1615 19.5383 51.0627 19.7088C50.964 19.8793 50.9118 20.0728 50.9116 20.2699V31.0209C50.9116 31.423 51.1264 31.7922 51.4742 31.9944L60.7857 37.3721C61.1334 37.5721 61.5615 37.5721 61.9103 37.3721L71.2217 31.9922C71.569 31.79 71.7843 31.4208 71.7843 31.0187V4.22473C71.784 4.02439 71.7303 3.82776 71.6287 3.6551C71.5271 3.48243 71.3813 3.33996 71.2064 3.24237L65.6672 0.150478ZM96.6746 23.7015C96.8446 23.6026 96.9857 23.4608 97.0838 23.2903C97.1818 23.1197 97.2335 22.9264 97.2335 22.7297V20.1242C97.2335 19.7233 97.0203 19.3535 96.6737 19.1517L87.4216 13.7806C87.2503 13.6813 87.0558 13.629 86.8579 13.629C86.6599 13.629 86.4654 13.6813 86.2942 13.7806L76.9849 19.1539C76.6355 19.3561 76.4223 19.7253 76.4223 20.1275V30.8741C76.4223 31.2784 76.6399 31.652 76.9893 31.852L86.2392 37.1242C86.5799 37.3198 86.9974 37.322 87.3425 37.1308L92.9377 34.0211C93.1135 33.9222 93.2256 33.7354 93.2256 33.5332C93.2256 33.331 93.1179 33.142 92.9421 33.0432L83.5757 27.6677C83.3998 27.5688 83.2922 27.382 83.2922 27.182V23.8108C83.2922 23.6095 83.3977 23.424 83.5735 23.3238L86.4876 21.6425C86.6612 21.5415 86.8744 21.5415 87.048 21.6425L89.9643 23.3238C90.1379 23.4227 90.2456 23.6095 90.2456 23.8094V26.4598C90.2456 26.6598 90.3532 26.8466 90.5269 26.9477C90.7005 27.0466 90.9158 27.0466 91.0895 26.9455L96.6746 23.7015Z" fill="#333333"/>
<path fill-rule="evenodd" clip-rule="evenodd" d="M86.7209 23.1987C86.7536 23.1795 86.7908 23.1695 86.8286 23.1695C86.8665 23.1695 86.9036 23.1795 86.9363 23.1987L88.723 24.2294C88.7898 24.268 88.8307 24.3392 88.8307 24.4162V26.4797C88.8307 26.5567 88.7898 26.6279 88.723 26.6665L86.9363 27.6972C86.9036 27.7163 86.8665 27.7264 86.8286 27.7264C86.7908 27.7264 86.7536 27.7163 86.7209 27.6972L84.9354 26.6665C84.9022 26.6479 84.8745 26.6208 84.8552 26.588C84.8359 26.5552 84.8256 26.5178 84.8255 26.4797V24.4162C84.8255 24.3392 84.8651 24.268 84.9332 24.2294L86.7209 23.1987Z" fill="#689F63"/>
<path d="M55.6284 18.2705L29.5387 5.48228L16.1614 32.7716L42.2505 45.5605L55.6284 18.2705Z" fill="url(#paint0_linear)"/>
<path d="M14.4671 22.0531L32.8891 46.9862L57.2525 28.9861L38.8294 4.05365L14.4671 22.0531Z" fill="url(#paint1_linear)"/>
<path d="M26.1046 13.6868V37.2963H46.2535V13.6868H26.1046Z" fill="url(#paint2_linear)"/>
<defs>
<linearGradient id="paint0_linear" x1="42.5757" y1="11.8563" x2="29.1994" y2="39.1438" gradientUnits="userSpaceOnUse">
<stop offset="0.3" stop-color="#3E863D"/>
<stop offset="0.5" stop-color="#55934F"/>
<stop offset="0.8" stop-color="#5AAD45"/>
</linearGradient>
<linearGradient id="paint1_linear" x1="23.7885" y1="34.6626" x2="48.1527" y2="16.6602" gradientUnits="userSpaceOnUse">
<stop offset="0.57" stop-color="#3E863D"/>
<stop offset="0.72" stop-color="#619857"/>
<stop offset="1" stop-color="#76AC64"/>
</linearGradient>
<linearGradient id="paint2_linear" x1="26.1114" y1="25.4922" x2="46.2573" y2="25.4922" gradientUnits="userSpaceOnUse">
<stop offset="0.16" stop-color="#6BBF47"/>
<stop offset="0.38" stop-color="#79B461"/>
<stop offset="0.47" stop-color="#75AC64"/>
<stop offset="0.7" stop-color="#659E5A"/>
<stop offset="0.9" stop-color="#3E863D"/>
</linearGradient>
</defs>
</svg>
