<svg width="79" height="60" viewBox="0 0 79 60" fill="none" xmlns="http://www.w3.org/2000/svg">
<path d="M45.1246 16.2637L42.4242 21.0182L33.1893 4.75428L4.83978 54.6749H24.0342C24.0342 57.3005 26.1278 59.4289 28.7102 59.4289H4.83978C3.16934 59.4289 1.62594 58.5225 0.790919 57.0515C0.380373 56.3265 0.164608 55.5076 0.164642 54.6744C0.164677 53.8413 0.38051 53.0224 0.791116 52.2974L29.1408 2.37724C29.976 0.906234 31.5198 0 33.1903 0C34.8609 0 36.4045 0.906234 37.2399 2.37704L45.1246 16.2639V16.2637Z" fill="#00C58E"/>
<path d="M65.5902 52.2978L47.8257 21.0182L45.1252 16.2635L42.4248 21.018L24.6623 52.2976C24.2517 53.0226 24.0359 53.8415 24.0358 54.6746C24.0358 55.5078 24.2516 56.3267 24.6621 57.0517C25.4971 58.5225 27.0403 59.4291 28.7108 59.4291H61.5356C63.2064 59.4291 64.7504 58.5235 65.5858 57.0525C65.9966 56.3275 66.2125 55.5084 66.2125 54.6751C66.2126 53.8418 65.9967 53.0227 65.586 52.2976L65.5902 52.2978ZM28.711 54.6749L45.1254 25.7724L61.5358 54.6751H28.711V54.6749Z" fill="#2F495E"/>
<path d="M78.2901 57.052C77.4549 58.5228 75.9117 59.429 74.2415 59.429H61.5345C64.1169 59.429 66.2105 57.3005 66.2105 54.6749H74.2316L51.4719 14.5937L47.8245 21.018L45.1244 16.2636L47.4233 12.2165C48.2585 10.7453 49.8023 9.83905 51.4729 9.83905C53.1435 9.83905 54.6871 10.7453 55.5223 12.2165L78.2901 52.2977C78.7007 53.0227 78.9165 53.8416 78.9165 54.6748C78.9165 55.508 78.7007 56.327 78.2901 57.052V57.052Z" fill="#108775"/>
</svg>
