<svg width="60" height="60" viewBox="0 0 60 60" fill="none" xmlns="http://www.w3.org/2000/svg">
<path d="M30 60C46.5685 60 60 46.5685 60 30C60 13.4315 46.5685 0 30 0C13.4315 0 0 13.4315 0 30C0 46.5685 13.4315 60 30 60Z" fill="#324A5E"/>
<path d="M48.75 9.60715H11.25V47.1071H48.75V9.60715Z" fill="#ACB3BA"/>
<path d="M45.4762 18.4048H14.5357V43.8214H45.4762V18.4048Z" fill="white"/>
<path d="M17.7976 12.4762H14.5357V15.2738H17.7976V12.4762Z" fill="#FF7058"/>
<path d="M23.1667 12.4762H19.9048V15.2738H23.1667V12.4762Z" fill="#FFD05B"/>
<path d="M28.5476 12.4762H25.2857V15.2738H28.5476V12.4762Z" fill="#2B3B4E"/>
<path d="M45.4762 12.4762H33.1904V15.2738H45.4762V12.4762Z" fill="white"/>
<path d="M18.0476 25.619C17.4167 25.619 16.9405 25.4048 16.631 24.9762C16.3215 24.5476 16.1548 23.9762 16.1548 23.25C16.1548 22.5357 16.3095 21.9524 16.631 21.5238C16.9405 21.0952 17.4167 20.881 18.0476 20.881C18.6786 20.881 19.1548 21.0952 19.4643 21.5238C19.7738 21.9524 19.9405 22.5238 19.9405 23.25C19.9405 23.9643 19.7857 24.5476 19.4643 24.9762C19.1548 25.4048 18.6786 25.619 18.0476 25.619ZM17.3691 22.1548C17.2262 22.4286 17.1548 22.8095 17.1548 23.2619C17.1548 23.7262 17.2262 24.0952 17.3691 24.369C17.5119 24.6429 17.7381 24.7857 18.0476 24.7857C18.3572 24.7857 18.5834 24.6429 18.7262 24.369C18.8691 24.0952 18.9405 23.7143 18.9405 23.2619C18.9405 22.7976 18.8691 22.4286 18.7262 22.1548C18.5834 21.881 18.3572 21.7381 18.0476 21.7381C17.7381 21.7262 17.5119 21.869 17.3691 22.1548Z" fill="#ACB3BA"/>
<path d="M20.5119 20.9881H22.369V25.5714H21.3809V21.8571H20.5119V20.9881V20.9881Z" fill="#324A5E"/>
<path d="M25.2023 25.619C24.5714 25.619 24.0952 25.4048 23.7857 24.9762C23.4761 24.5476 23.3095 23.9762 23.3095 23.25C23.3095 22.5357 23.4642 21.9524 23.7857 21.5238C24.0952 21.0952 24.5714 20.881 25.2023 20.881C25.8333 20.881 26.3095 21.0952 26.619 21.5238C26.9285 21.9524 27.0952 22.5238 27.0952 23.25C27.0952 23.9643 26.9404 24.5476 26.619 24.9762C26.3095 25.4048 25.8452 25.619 25.2023 25.619ZM24.5357 22.1548C24.3928 22.4286 24.3214 22.8095 24.3214 23.2619C24.3214 23.7262 24.3928 24.0952 24.5357 24.369C24.6785 24.6429 24.9047 24.7857 25.2142 24.7857C25.5238 24.7857 25.75 24.6429 25.8928 24.369C26.0357 24.0952 26.1071 23.7143 26.1071 23.2619C26.1071 22.7976 26.0357 22.4286 25.8928 22.1548C25.75 21.881 25.5238 21.7381 25.2142 21.7381C24.9047 21.7262 24.6785 21.869 24.5357 22.1548Z" fill="#4CDBC4"/>
<path d="M27.6666 20.9881H29.5238V25.5714H28.5357V21.8571H27.6666V20.9881V20.9881Z" fill="#324A5E"/>
<path d="M32.3691 25.619C31.7381 25.619 31.2619 25.4048 30.9524 24.9762C30.6429 24.5476 30.4762 23.9762 30.4762 23.25C30.4762 22.5357 30.631 21.9524 30.9524 21.5238C31.2738 21.0952 31.7381 20.881 32.3691 20.881C33 20.881 33.4762 21.0952 33.7857 21.5238C34.0952 21.9524 34.2619 22.5238 34.2619 23.25C34.2619 23.9643 34.1071 24.5476 33.7857 24.9762C33.4762 25.4048 33 25.619 32.3691 25.619ZM31.6905 22.1548C31.5476 22.4286 31.4762 22.8095 31.4762 23.2619C31.4762 23.7262 31.5476 24.0952 31.6905 24.369C31.8333 24.6429 32.0595 24.7857 32.3691 24.7857C32.6786 24.7857 32.9048 24.6429 33.0476 24.369C33.1905 24.0952 33.2619 23.7143 33.2619 23.2619C33.2619 22.7976 33.1905 22.4286 33.0476 22.1548C32.9048 21.881 32.6786 21.7381 32.3691 21.7381C32.0595 21.7262 31.8333 21.869 31.6905 22.1548Z" fill="#2C9984"/>
<path d="M34.8334 20.9881H36.6905V25.5714H35.7024V21.8571H34.8334V20.9881Z" fill="#324A5E"/>
<path d="M39.5357 25.619C38.9048 25.619 38.4286 25.4048 38.119 24.9762C37.8095 24.5476 37.6429 23.9762 37.6429 23.25C37.6429 22.5357 37.7976 21.9524 38.119 21.5238C38.4405 21.0952 38.9048 20.881 39.5357 20.881C40.1667 20.881 40.6429 21.0952 40.9524 21.5238C41.2619 21.9524 41.4286 22.5238 41.4286 23.25C41.4286 23.9643 41.2738 24.5476 40.9524 24.9762C40.6309 25.4048 40.1667 25.619 39.5357 25.619ZM38.8571 22.1548C38.7143 22.4286 38.6429 22.8095 38.6429 23.2619C38.6429 23.7262 38.7143 24.0952 38.8571 24.369C39 24.6429 39.2262 24.7857 39.5357 24.7857C39.8452 24.7857 40.0714 24.6429 40.2143 24.369C40.3571 24.0952 40.4286 23.7143 40.4286 23.2619C40.4286 22.7976 40.3571 22.4286 40.2143 22.1548C40.0714 21.881 39.8452 21.7381 39.5357 21.7381C39.2262 21.7262 39 21.869 38.8571 22.1548Z" fill="#F1543F"/>
<path d="M42 20.9881H43.8572V25.5714H42.8691V21.8571H42V20.9881Z" fill="#324A5E"/>
<path d="M18.0476 33.4881C17.4167 33.4881 16.9405 33.2738 16.631 32.8452C16.3215 32.4167 16.1548 31.8452 16.1548 31.119C16.1548 30.4048 16.3095 29.8214 16.631 29.3929C16.9405 28.9643 17.4167 28.75 18.0476 28.75C18.6786 28.75 19.1548 28.9643 19.4643 29.3929C19.7738 29.8214 19.9405 30.3929 19.9405 31.119C19.9405 31.8333 19.7857 32.4167 19.4643 32.8452C19.1548 33.2738 18.6786 33.4881 18.0476 33.4881ZM17.3691 30.0119C17.2262 30.2857 17.1548 30.6667 17.1548 31.119C17.1548 31.5833 17.2262 31.9524 17.3691 32.2262C17.5119 32.5 17.7381 32.6429 18.0476 32.6429C18.3572 32.6429 18.5834 32.5 18.7262 32.2262C18.8691 31.9524 18.9405 31.5714 18.9405 31.119C18.9405 30.6548 18.8691 30.2857 18.7262 30.0119C18.5834 29.7381 18.3572 29.5952 18.0476 29.5952C17.7381 29.5952 17.5119 29.7381 17.3691 30.0119Z" fill="#324A5E"/>
<path d="M20.512 28.8571H22.3691V33.4405H21.381V29.7262H20.512V28.8571V28.8571Z" fill="#324A5E"/>
<path d="M25.2023 33.4881C24.5714 33.4881 24.0952 33.2738 23.7857 32.8452C23.4761 32.4167 23.3095 31.8452 23.3095 31.119C23.3095 30.4048 23.4642 29.8214 23.7857 29.3929C24.0952 28.9643 24.5714 28.75 25.2023 28.75C25.8333 28.75 26.3095 28.9643 26.619 29.3929C26.9285 29.8214 27.0952 30.3929 27.0952 31.119C27.0952 31.8333 26.9404 32.4167 26.619 32.8452C26.3095 33.2738 25.8452 33.4881 25.2023 33.4881ZM24.5357 30.0119C24.3928 30.2857 24.3214 30.6667 24.3214 31.119C24.3214 31.5833 24.3928 31.9524 24.5357 32.2262C24.6785 32.5 24.9047 32.6429 25.2142 32.6429C25.5238 32.6429 25.75 32.5 25.8928 32.2262C26.0357 31.9524 26.1071 31.5714 26.1071 31.119C26.1071 30.6548 26.0357 30.2857 25.8928 30.0119C25.75 29.7381 25.5238 29.5952 25.2142 29.5952C24.9047 29.5952 24.6785 29.7381 24.5357 30.0119Z" fill="#F1543F"/>
<path d="M27.6666 28.8571H29.5238V33.4405H28.5357V29.7262H27.6666V28.8571V28.8571Z" fill="#54C0EB"/>
<path d="M32.3691 33.4881C31.7381 33.4881 31.2619 33.2738 30.9524 32.8452C30.6429 32.4167 30.4762 31.8452 30.4762 31.119C30.4762 30.4048 30.631 29.8214 30.9524 29.3929C31.2738 28.9643 31.7381 28.75 32.3691 28.75C33 28.75 33.4762 28.9643 33.7857 29.3929C34.0952 29.8214 34.2619 30.3929 34.2619 31.119C34.2619 31.8333 34.1071 32.4167 33.7857 32.8452C33.4762 33.2738 33 33.4881 32.3691 33.4881ZM31.6905 30.0119C31.5476 30.2857 31.4762 30.6667 31.4762 31.119C31.4762 31.5833 31.5476 31.9524 31.6905 32.2262C31.8333 32.5 32.0595 32.6429 32.3691 32.6429C32.6786 32.6429 32.9048 32.5 33.0476 32.2262C33.1905 31.9524 33.2619 31.5714 33.2619 31.119C33.2619 30.6548 33.1905 30.2857 33.0476 30.0119C32.9048 29.7381 32.6786 29.5952 32.3691 29.5952C32.0595 29.5952 31.8333 29.7381 31.6905 30.0119Z" fill="#324A5E"/>
<path d="M34.8334 28.8571H36.6905V33.4405H35.7024V29.7262H34.8334V28.8571Z" fill="#4CDBC4"/>
<path d="M39.5357 33.4881C38.9048 33.4881 38.4286 33.2738 38.119 32.8452C37.8095 32.4167 37.6429 31.8452 37.6429 31.119C37.6429 30.4048 37.7976 29.8214 38.119 29.3929C38.4405 28.9643 38.9048 28.75 39.5357 28.75C40.1667 28.75 40.6429 28.9643 40.9524 29.3929C41.2619 29.8214 41.4286 30.3929 41.4286 31.119C41.4286 31.8333 41.2738 32.4167 40.9524 32.8452C40.6309 33.2738 40.1667 33.4881 39.5357 33.4881ZM38.8571 30.0119C38.7143 30.2857 38.6429 30.6667 38.6429 31.119C38.6429 31.5833 38.7143 31.9524 38.8571 32.2262C39 32.5 39.2262 32.6429 39.5357 32.6429C39.8452 32.6429 40.0714 32.5 40.2143 32.2262C40.3571 31.9524 40.4286 31.5714 40.4286 31.119C40.4286 30.6548 40.3571 30.2857 40.2143 30.0119C40.0714 29.7381 39.8452 29.5952 39.5357 29.5952C39.2262 29.5952 39 29.7381 38.8571 30.0119Z" fill="#324A5E"/>
<path d="M42 28.8571H43.8571V33.4405H42.869V29.7262H42V28.8571Z" fill="#F9B54C"/>
<path d="M18.0476 41.3571C17.4167 41.3571 16.9405 41.1429 16.631 40.7143C16.3215 40.2857 16.1548 39.7143 16.1548 38.9881C16.1548 38.2738 16.3095 37.6905 16.631 37.2619C16.9405 36.8333 17.4167 36.619 18.0476 36.619C18.6786 36.619 19.1548 36.8333 19.4643 37.2619C19.7738 37.6905 19.9405 38.2619 19.9405 38.9881C19.9405 39.7024 19.7857 40.2857 19.4643 40.7143C19.1548 41.131 18.6786 41.3571 18.0476 41.3571ZM17.3691 37.881C17.2262 38.1548 17.1548 38.5357 17.1548 38.9881C17.1548 39.4524 17.2262 39.8214 17.3691 40.0952C17.5119 40.369 17.7381 40.5119 18.0476 40.5119C18.3572 40.5119 18.5834 40.369 18.7262 40.0952C18.8691 39.8214 18.9405 39.4405 18.9405 38.9881C18.9405 38.5238 18.8691 38.1548 18.7262 37.881C18.5834 37.6071 18.3572 37.4643 18.0476 37.4643C17.7381 37.4643 17.5119 37.5952 17.3691 37.881Z" fill="#2C9984"/>
<path d="M20.5119 36.7143H22.369V41.2976H21.3809V37.5833H20.5119V36.7143V36.7143Z" fill="#324A5E"/>
<path d="M25.2023 41.3571C24.5714 41.3571 24.0952 41.1429 23.7857 40.7143C23.4761 40.2857 23.3095 39.7143 23.3095 38.9881C23.3095 38.2738 23.4642 37.6905 23.7857 37.2619C24.0952 36.8333 24.5714 36.619 25.2023 36.619C25.8333 36.619 26.3095 36.8333 26.619 37.2619C26.9285 37.6905 27.0952 38.2619 27.0952 38.9881C27.0952 39.7024 26.9404 40.2857 26.619 40.7143C26.3095 41.131 25.8452 41.3571 25.2023 41.3571ZM24.5357 37.881C24.3928 38.1548 24.3214 38.5357 24.3214 38.9881C24.3214 39.4524 24.3928 39.8214 24.5357 40.0952C24.6785 40.369 24.9047 40.5119 25.2142 40.5119C25.5238 40.5119 25.75 40.369 25.8928 40.0952C26.0357 39.8214 26.1071 39.4405 26.1071 38.9881C26.1071 38.5238 26.0357 38.1548 25.8928 37.881C25.75 37.6071 25.5238 37.4643 25.2142 37.4643C24.9047 37.4643 24.6785 37.5952 24.5357 37.881Z" fill="#ACB3BA"/>
<path d="M27.6666 36.7143H29.5238V41.2976H28.5357V37.5833H27.6666V36.7143V36.7143Z" fill="#F9B54C"/>
<path d="M32.3691 41.3571C31.7381 41.3571 31.2619 41.1429 30.9524 40.7143C30.6429 40.2857 30.4762 39.7143 30.4762 38.9881C30.4762 38.2738 30.631 37.6905 30.9524 37.2619C31.2738 36.8333 31.7381 36.619 32.3691 36.619C33 36.619 33.4762 36.8333 33.7857 37.2619C34.0952 37.6905 34.2619 38.2619 34.2619 38.9881C34.2619 39.7024 34.1071 40.2857 33.7857 40.7143C33.4762 41.131 33 41.3571 32.3691 41.3571ZM31.6905 37.881C31.5476 38.1548 31.4762 38.5357 31.4762 38.9881C31.4762 39.4524 31.5476 39.8214 31.6905 40.0952C31.8333 40.369 32.0595 40.5119 32.3691 40.5119C32.6786 40.5119 32.9048 40.369 33.0476 40.0952C33.1905 39.8214 33.2619 39.4405 33.2619 38.9881C33.2619 38.5238 33.1905 38.1548 33.0476 37.881C32.9048 37.6071 32.6786 37.4643 32.3691 37.4643C32.0595 37.4643 31.8333 37.5952 31.6905 37.881Z" fill="#324A5E"/>
<path d="M34.8334 36.7143H36.6905V41.2976H35.7024V37.5833H34.8334V36.7143Z" fill="#324A5E"/>
<path d="M39.5357 41.3571C38.9048 41.3571 38.4286 41.1429 38.119 40.7143C37.8095 40.2857 37.6429 39.7143 37.6429 38.9881C37.6429 38.2738 37.7976 37.6905 38.119 37.2619C38.4405 36.8333 38.9048 36.619 39.5357 36.619C40.1667 36.619 40.6429 36.8333 40.9524 37.2619C41.2619 37.6905 41.4286 38.2619 41.4286 38.9881C41.4286 39.7024 41.2738 40.2857 40.9524 40.7143C40.6309 41.1429 40.1667 41.3571 39.5357 41.3571ZM38.8571 37.881C38.7143 38.1548 38.6429 38.5357 38.6429 38.9881C38.6429 39.4524 38.7143 39.8214 38.8571 40.0952C39 40.369 39.2262 40.5119 39.5357 40.5119C39.8452 40.5119 40.0714 40.369 40.2143 40.0952C40.3571 39.8214 40.4286 39.4405 40.4286 38.9881C40.4286 38.5238 40.3571 38.1548 40.2143 37.881C40.0714 37.6071 39.8452 37.4643 39.5357 37.4643C39.2262 37.4643 39 37.5952 38.8571 37.881Z" fill="#54C0EB"/>
<path d="M42 36.7143H43.8571V41.2976H42.869V37.5833H42V36.7143Z" fill="#324A5E"/>
</svg>
