<?xml version="1.0" encoding="iso-8859-1"?>
<!-- Generator: Adobe Illustrator 19.0.0, SVG Export Plug-In . SVG Version: 6.00 Build 0)  -->
<svg version="1.1" id="Layer_1" xmlns="http://www.w3.org/2000/svg" xmlns:xlink="http://www.w3.org/1999/xlink" x="0px" y="0px"
	 viewBox="0 0 292.967 292.967" style="enable-background:new 0 0 292.967 292.967;" xml:space="preserve">
<g>
	<g>
		<path d="M194.344,52.449h46.805c3.567,0,6.797-2.106,8.235-5.37c1.438-3.264,0.814-7.069-1.592-9.702
			c-0.951-1.041-23.612-25.586-51.373-34.378c-23.031-7.293-48.951-1.022-66.036,15.974c-13.83,13.757-20.064,32.225-24.34,48.476
			c-4.512,17.153-6.8,35.914-6.8,55.761c0,6.047,0.018,11.797,0.035,17.276c0.242,78.467,0.299,97.111-52.798,136.235
			c-3.13,2.307-4.425,6.362-3.211,10.056c1.214,3.693,4.663,6.19,8.55,6.19h3.161c19.771,0,38.503-5.178,54.755-14.402h44.147
			l1.146-0.008h0.001h60.717c4.971,0,9-4.029,9-9s-4.029-9-9-9h-6.781c4.274-3.133,8.321-6.649,12.094-10.535
			c17.546-18.07,26.996-41.792,26.609-66.795c-0.36-23.288-9.311-45.495-25.202-62.53c0,0-39.604-42.454-39.805-42.67
			c-2.593-2.779-4.044-6.403-4.084-10.204c-0.042-3.911,1.522-7.667,4.403-10.579C185.995,54.197,190.137,52.449,194.344,52.449z
			 M169.499,90.306l0.012-0.011c0.139,0.164,0.283,0.327,0.435,0.49l39.358,42.191c12.842,13.767,20.075,31.712,20.366,50.53
			c0.313,20.191-7.332,39.36-21.525,53.977c-14.176,14.6-33.084,22.794-53.177,23.074l-21.603,0.008
			c13.945-13.957,24.257-31.754,29.223-52.048l4.068-16.626l26.436,10.975c2.679,1.112,5.731,0.865,8.196-0.665
			c2.465-1.529,4.042-4.153,4.235-7.048c1.736-26.016-7.382-52.466-25.018-72.57c-3.278-3.737-8.964-4.108-12.701-0.831
			c-3.737,3.277-4.108,8.964-0.831,12.701c11.56,13.178,18.673,29.628,20.367,46.536l-23.479-9.748
			c-2.425-1.007-5.171-0.903-7.516,0.282c-2.344,1.187-4.053,3.338-4.677,5.891l-6.564,26.825
			c-8.004,32.712-32.592,57.676-63.551,66.879c36.027-34.243,35.932-63.794,35.726-130.687c-0.017-5.461-0.035-11.193-0.035-17.221
			c0-18.302,2.088-35.522,6.208-51.182c3.66-13.911,8.854-29.577,19.627-40.294c8.865-8.82,21.457-13.686,33.994-13.686
			c4.712,0,9.417,0.688,13.913,2.111c9.738,3.084,18.969,8.751,26.402,14.29h-23.042c-8.981,0-17.787,3.694-24.159,10.134
			c-6.288,6.354-9.699,14.675-9.606,23.429C160.666,76.316,163.834,84.233,169.499,90.306z"/>
	</g>
</g>
<g>
</g>
<g>
</g>
<g>
</g>
<g>
</g>
<g>
</g>
<g>
</g>
<g>
</g>
<g>
</g>
<g>
</g>
<g>
</g>
<g>
</g>
<g>
</g>
<g>
</g>
<g>
</g>
<g>
</g>
</svg>
