<svg width="60" height="60" viewBox="0 0 60 60" fill="none" xmlns="http://www.w3.org/2000/svg">
<path d="M53.0263 0.657898H0.394737V49.6616H53.0263V0.657898Z" fill="#324A5E"/>
<path d="M48.4211 11.6541H5V45.094H48.4211V11.6541Z" fill="white"/>
<path d="M10.4323 4.56766H5V7.74435H10.4323V4.56766Z" fill="white"/>
<path d="M19.3986 4.56766H13.9662V7.74435H19.3986V4.56766Z" fill="#F9B54C"/>
<path d="M28.3646 4.56766H22.9323V7.74435H28.3646V4.56766Z" fill="#54C0EB"/>
<path d="M45.3008 24.9436H8.12034V31.8045H45.3008V24.9436Z" fill="#F1543F"/>
<path d="M25.0564 34.9624H8.12034V41.8233H25.0564V34.9624Z" fill="#54C0EB"/>
<path d="M45.282 34.9624H28.3459V41.8233H45.282V34.9624Z" fill="#ACB3BA"/>
<path d="M25.0564 14.9248H8.12034V21.7857H25.0564V14.9248Z" fill="#ACB3BA"/>
<path d="M45.282 14.9248H28.3459V21.7857H45.282V14.9248Z" fill="#54C0EB"/>
<path d="M39.7745 26.9737C38.7595 26.9737 37.9324 27.8008 37.9324 28.8158V58.0451C37.9324 59.0602 38.7595 59.8872 39.7745 59.8872H57.7632C58.7783 59.8872 59.6053 59.0602 59.6053 58.0451V28.797C59.6053 27.782 58.7783 26.9549 57.7632 26.9549H39.7745V26.9737Z" fill="#E6E9EE"/>
<path d="M56.9737 32.1992H40.5452V52.5752H56.9737V32.1992Z" fill="#84DBFF"/>
<path d="M51.4097 30.094H46.1089C46.015 30.094 45.9398 30.0188 45.9398 29.9248V28.891C45.9398 28.797 46.015 28.7218 46.1089 28.7218H51.4097C51.5037 28.7218 51.5788 28.797 51.5788 28.891V29.9248C51.5976 30 51.5037 30.094 51.4097 30.094Z" fill="#2B3B4E"/>
<path d="M48.7594 58.1955C49.9428 58.1955 50.9022 57.2445 50.9022 56.0714C50.9022 54.8983 49.9428 53.9474 48.7594 53.9474C47.5759 53.9474 46.6165 54.8983 46.6165 56.0714C46.6165 57.2445 47.5759 58.1955 48.7594 58.1955Z" fill="#324A5E"/>
</svg>
