<svg width="81" height="60" viewBox="0 0 81 60" fill="none" xmlns="http://www.w3.org/2000/svg">
<path d="M69.1767 34.4688C66.3798 34.4846 63.9579 35.1563 61.9267 36.1565C61.1767 34.6721 60.4267 33.3751 60.3018 32.4065C60.1612 31.2815 59.9893 30.5938 60.1612 29.2502C60.3329 27.9063 61.1142 26.0001 61.1142 25.8438C61.0984 25.7032 60.9422 25.0157 59.3329 25.0001C57.7237 24.9844 56.3329 25.3126 56.1767 25.7344C56.0204 26.1563 55.7079 27.1251 55.5048 28.1251C55.2236 29.5938 52.2861 34.7969 50.6142 37.5313C50.0673 36.4688 49.5986 35.5313 49.5047 34.7812C49.3642 33.6563 49.1921 32.9687 49.3642 31.6251C49.5361 30.2812 50.3173 28.3751 50.3173 28.2188C50.3017 28.0782 50.1454 27.3907 48.5362 27.3751C46.9267 27.3594 45.5362 27.6876 45.38 28.1094C45.2237 28.5313 45.0518 29.5313 44.7081 30.5001C44.3798 31.4688 40.4736 40.1563 39.4579 42.4219C38.9423 43.5782 38.4893 44.5001 38.1611 45.1251C37.8329 45.7501 38.1454 45.1719 38.1142 45.2344C37.8329 45.7657 37.6767 46.0626 37.6767 46.0626V46.0784C37.4579 46.469 37.2236 46.8438 37.114 46.8438C37.0359 46.8438 36.8796 45.7969 37.1453 44.3596C37.7234 41.3438 39.1296 36.6408 39.1142 36.469C39.1142 36.3908 39.3796 35.5626 38.2078 35.1408C37.0671 34.719 36.6611 35.4221 36.5671 35.4221C36.4734 35.4221 36.3953 35.6721 36.3953 35.6721C36.3953 35.6721 37.6609 30.3754 33.9734 30.3754C31.6609 30.3754 28.4734 32.891 26.8953 35.1879C25.8953 35.7348 23.7703 36.8908 21.5203 38.1254C20.6609 38.5941 19.7703 39.0941 18.9265 39.5473L18.7548 39.3594C14.2861 34.5938 6.02043 31.2188 6.36418 24.8126C6.48918 22.4844 7.30168 16.3438 22.2393 8.90631C34.4737 2.81256 44.2706 4.48444 45.9736 8.20319C48.3954 13.5157 40.7392 23.3907 28.0206 24.8126C23.1768 25.3594 20.6298 23.4844 19.9893 22.7813C19.3175 22.0469 19.2237 22.0157 18.9737 22.1563C18.5675 22.3751 18.8175 23.0313 18.9737 23.4219C19.3487 24.4063 20.9112 26.1563 23.5675 27.0313C25.8954 27.7969 31.5831 28.2188 38.4581 25.5626C46.1612 22.5782 52.1768 14.2969 50.4112 7.37506C48.6143 0.328189 36.9268 -1.98431 25.88 1.93756C19.3017 4.28131 12.1767 7.93756 7.05168 12.7344C0.957926 18.4219 -0.0108237 23.3907 0.395426 25.4532C1.81746 32.8126 11.9579 37.6094 16.0204 41.1563C15.8173 41.2655 15.6298 41.3749 15.4579 41.4688C13.4267 42.4687 5.6923 46.5157 3.7548 50.7968C1.5673 55.6405 4.09855 59.1251 5.78605 59.5938C11.0048 61.0469 16.3486 58.4376 19.2392 54.1407C22.114 49.8438 21.7704 44.2657 20.4423 41.7188L20.3953 41.6251L21.989 40.6876C23.0204 40.0782 24.0361 39.5157 24.9265 39.0312C24.4267 40.3905 24.0671 41.9999 23.8798 44.3437C23.6611 47.0938 24.7861 50.6562 26.2704 52.0624C26.9267 52.6716 27.7079 52.6874 28.1923 52.6874C29.9111 52.6874 30.6923 51.2654 31.5517 49.5624C32.6142 47.4843 33.5517 45.078 33.5517 45.078C33.5517 45.078 32.3798 51.5937 35.5829 51.5937C36.7548 51.5937 37.9267 50.078 38.4579 49.2968V49.3124C38.4579 49.3124 38.4892 49.2655 38.5517 49.1562C38.6172 49.0592 38.6798 48.9603 38.7392 48.8594V48.8282C39.2079 48.0157 40.2548 46.1563 41.8173 43.0782C43.8328 39.1094 45.7704 34.1407 45.7704 34.1407C45.7704 34.1407 45.9579 35.3594 46.5361 37.3594C46.8797 38.5471 47.6296 39.8438 48.2078 41.1094C47.739 41.7657 47.4578 42.1408 47.4578 42.1408L47.4734 42.1565C47.0986 42.6565 46.6765 43.1879 46.2392 43.719C44.6454 45.6252 42.7392 47.7973 42.4892 48.4223C42.1923 49.1565 42.2548 49.7034 42.8329 50.141C43.2548 50.4535 44.0048 50.5159 44.8017 50.4535C46.2392 50.3596 47.2392 50.0004 47.7392 49.7815C48.5204 49.5002 49.4111 49.0784 50.2704 48.4534C51.8329 47.2973 52.7861 45.6566 52.6923 43.4691C52.6454 42.266 52.2548 41.0785 51.7704 39.9535C51.9111 39.7504 52.0518 39.5471 52.1923 39.3285C54.6611 35.719 56.5673 31.7504 56.5673 31.7504C56.5673 31.7504 56.7548 32.9691 57.3329 34.9691C57.6296 35.9848 58.2236 37.0943 58.7548 38.188C56.4423 40.0787 54.9892 42.2662 54.4892 43.7037C53.5673 46.3599 54.2861 47.563 55.6454 47.8443C56.2546 47.9693 57.1298 47.688 57.7859 47.4068C58.5984 47.1412 59.5828 46.6879 60.4892 46.0162C62.0517 44.8599 63.5517 43.2505 63.4736 41.0787C63.4267 40.0787 63.1611 39.0943 62.8017 38.1568C64.7704 37.3443 67.3171 36.8755 70.5517 37.2662C77.5048 38.0787 78.8798 42.4224 78.6143 44.2349C78.3487 46.0476 76.8956 47.0474 76.4111 47.3599C75.9267 47.6568 75.7704 47.7663 75.8173 47.9849C75.8798 48.3132 76.0986 48.2974 76.5204 48.2351C77.0986 48.1412 80.1767 46.7507 80.3017 43.4071C80.4892 39.1096 76.4111 34.4221 69.1767 34.4688V34.4688ZM15.5517 52.5469C13.2548 55.0626 10.0204 56.0157 8.64543 55.2032C7.16105 54.3438 7.73902 50.6407 10.5673 47.9688C12.2861 46.3438 14.5204 44.8438 15.9892 43.9219C16.3173 43.7188 16.8173 43.4221 17.4111 43.0626C17.5048 43.0002 17.5673 42.9688 17.5673 42.9688C17.6767 42.9063 17.8017 42.8282 17.9267 42.7501C18.9736 46.5626 17.9736 49.9063 15.5517 52.5469V52.5469ZM32.3486 41.1251C31.5517 43.0782 29.8642 48.0938 28.8486 47.8126C27.9734 47.5782 27.4423 43.7813 28.6765 40.0313C29.3015 38.1405 30.6296 35.8907 31.4109 35.0155C32.6767 33.6093 34.0515 33.1405 34.3954 33.7187C34.8017 34.4688 32.8486 39.9063 32.3486 41.1251ZM46.2079 47.7501C45.8642 47.9221 45.5517 48.0469 45.4111 47.9534C45.3017 47.8909 45.5515 47.6565 45.5515 47.6565C45.5515 47.6565 47.2859 45.7971 47.9734 44.9377C48.364 44.4379 48.8328 43.8598 49.3328 43.2034V43.3908C49.3329 45.6407 47.1767 47.1407 46.2079 47.7501ZM56.8953 45.3126C56.6453 45.1251 56.6767 44.5469 57.5203 42.7344C57.8486 42.0157 58.5984 40.8126 59.8953 39.6719C60.0515 40.1407 60.1454 40.5937 60.1297 41.0157C60.1142 43.8282 58.1142 44.8751 56.8953 45.3126Z" fill="#CF649A"/>
</svg>
