<svg width="60" height="60" viewBox="0 0 60 60" fill="none" xmlns="http://www.w3.org/2000/svg">
<path d="M49.8495 42.0865L56.1277 35.8083L52.951 32.6316C53.9473 30.9962 54.6616 29.2481 55.1127 27.4436H59.6052V18.5338H55.1127C54.6616 16.7293 53.9473 14.9812 52.951 13.3459L56.1277 10.1692L49.8495 3.87219L46.6729 7.04888C45.0375 6.05264 43.2894 5.33835 41.4849 4.88723V0.394745H32.5939V4.88723C30.7894 5.33835 29.0413 6.05264 27.4059 7.04888L24.2105 3.87219L17.9323 10.1504L21.109 13.3271C20.1127 14.9624 19.3984 16.7105 18.9473 18.515H14.4548V27.406H18.9473C19.3984 29.2105 20.1127 30.9586 21.109 32.594L17.9323 35.7707L24.2105 42.0489L27.3872 38.8722C29.0225 39.8684 30.7706 40.5827 32.5751 41.0338V45.5263H41.4661V41.0338C43.2706 40.5827 45.0187 39.8684 46.6541 38.8722L49.8495 42.0865ZM27.218 32.782C21.8044 27.3684 21.8044 18.5902 27.218 13.1767C32.6315 7.76317 41.4097 7.76317 46.8232 13.1767C52.2368 18.5902 52.2368 27.3684 46.8232 32.782C41.4097 38.1955 32.6315 38.1955 27.218 32.782Z" fill="white"/>
<path d="M13.6257 40.1084L19.8993 46.3819L24.2057 42.0755L17.9321 35.8019L13.6257 40.1084Z" fill="#F1543F"/>
<path d="M13.2143 39.718L1.8609 51.0714C-0.093985 53.0263 -0.093985 56.1842 1.8609 58.1391C3.81579 60.094 6.97368 60.094 8.92857 58.1391L20.282 46.7857L13.2143 39.718Z" fill="#2B3B4E"/>
<path d="M32.6881 22.2181H27.688V31.3722H32.6881V22.2181Z" fill="#FF7058"/>
<path d="M39.5301 18.045H34.5301V31.3721H39.5301V18.045Z" fill="#324A5E"/>
<path d="M46.3722 14.5676H41.3722V31.3721H46.3722V14.5676Z" fill="#FFD05B"/>
</svg>
