<svg width="61" height="60" viewBox="0 0 61 60" fill="none" xmlns="http://www.w3.org/2000/svg">
<path d="M22.4289 0.96355C30.1965 -1.02849 38.7814 0.132308 45.6319 4.36025C54.2596 9.51983 59.8922 19.2798 60.0355 29.3264C60.3508 39.4732 55.0622 49.5343 46.5635 55.052C37.1045 61.4153 24.0196 61.6591 14.3599 55.611C4.51402 49.7348 -1.23316 37.8824 0.243232 26.5029C1.43244 14.4784 10.7198 3.87302 22.4289 0.96379V0.96355Z" fill="#010101"/>
<path d="M21.2393 5.87953C35.9152 0.00331678 53.9161 10.8525 55.4351 26.589C57.8 40.7487 46.0478 55.1379 31.7014 55.5536C18.0575 56.9152 4.87221 45.3491 4.48535 31.6482C3.46778 20.5554 10.7771 9.54849 21.2393 5.87953V5.87953Z" fill="white"/>
<path d="M22.7154 28.481C29.2938 23.1064 35.7288 17.5456 42.4505 12.3287C38.9247 17.7463 35.2989 23.092 31.7731 28.5094C28.749 28.5238 25.7252 28.5238 22.7154 28.4808V28.481ZM28.2763 31.4762C31.3145 31.4762 34.3386 31.4762 37.3626 31.5192C30.7413 36.8649 24.335 42.4686 17.5989 47.6713C21.1246 42.2537 24.7505 36.8938 28.2763 31.4762Z" fill="#010101"/>
</svg>
