<svg width="54" height="61" viewBox="0 0 54 61" fill="none" xmlns="http://www.w3.org/2000/svg">
<g clip-path="url(#clip0)">
<path d="M26.9994 0.131897L53.5144 15.1319V45.1319L26.9994 60.1319L0.484406 45.1319V15.1319L26.9994 0.131897Z" fill="white"/>
<path d="M48.7801 44.0968L27.8751 55.9218V46.7118L40.9001 39.5468L48.7801 44.0968ZM50.2101 42.8018V18.0718L42.5601 22.4868V38.3818L50.2101 42.8018ZM5.13506 44.0968L26.0401 55.9218V46.7118L13.0151 39.5468L5.13506 44.0968V44.0968ZM3.70506 42.8018V18.0718L11.3551 22.4868V38.3818L3.70506 42.8018V42.8018ZM4.60006 16.4718L26.0401 4.3418V13.2468L12.3051 20.8018L12.2001 20.8618L4.60006 16.4718V16.4718ZM49.3151 16.4718L27.8751 4.3418V13.2468L41.6101 20.8018L41.7151 20.8618L49.3151 16.4718V16.4718Z" fill="#8ED6FB"/>
<path d="M26.0393 44.6168L13.1893 37.5518V23.5518L26.0393 30.9718V44.6168ZM27.8743 44.6168L40.7243 37.5518V23.5518L27.8743 30.9718V44.6168ZM14.0593 21.9318L26.9593 14.8368L39.8593 21.9318L26.9593 29.3818L14.0593 21.9318" fill="#1C78C0"/>
</g>
<defs>
<clipPath id="clip0">
<rect width="54" height="60" fill="white" transform="translate(0 0.131836)"/>
</clipPath>
</defs>
</svg>
